<svg width="1865" height="1802" viewBox="0 0 1865 1802" fill="none" xmlns="http://www.w3.org/2000/svg">
<path d="M1177.82 1.48703C1176.75 2.42037 1173.15 7.3537 1169.69 12.5537C1155.55 34.287 1133.42 55.6204 1101.95 78.0204C1082.09 92.1537 1024.62 129.487 1023.82 128.82C1023.55 128.42 1021.55 120.42 1019.42 111.087C1013.82 86.0204 1012.75 83.3537 1008.62 82.8204C1001.82 82.0204 1001.55 84.687 1005.95 105.487C1008.22 116.02 1010.49 127.487 1011.15 131.22L1012.22 137.887L1000.09 147.087C934.886 196.82 898.886 250.287 880.752 324.287C878.619 333.087 875.819 346.554 874.752 354.287C873.552 362.154 872.086 369.487 871.552 370.554C869.419 374.954 822.486 387.22 818.086 384.554C816.886 383.754 794.752 347.354 793.419 343.887C792.886 342.287 794.752 341.354 801.952 339.487C814.352 336.287 831.686 327.354 842.752 318.554C871.552 295.62 886.086 259.887 879.152 228.954C878.219 225.087 873.286 213.354 868.086 202.82L858.486 183.887L863.286 180.287C872.352 173.487 898.486 147.22 906.752 136.554C922.352 116.42 933.419 94.4204 932.486 85.2204C931.952 79.3537 926.752 76.0204 921.286 77.887C918.352 78.9537 916.752 81.2204 913.419 89.887C911.152 95.7537 907.686 103.62 905.819 107.22C897.552 123.22 875.552 148.287 856.752 163.087L848.886 169.354L844.619 160.954C834.886 141.62 832.886 126.687 838.086 112.954C841.419 104.02 841.419 102.287 837.686 98.8204C830.752 92.287 823.419 97.6204 817.552 113.22C810.886 131.22 813.686 151.22 825.552 173.087C829.286 179.754 829.819 181.887 828.486 182.82C827.552 183.354 821.952 186.687 816.086 190.154C772.352 215.354 750.086 249.354 750.086 290.554C750.086 317.087 757.152 338.554 777.152 372.687C786.486 388.554 787.419 394.82 783.419 419.887C781.686 430.82 779.819 439.354 779.419 438.82C778.886 438.287 776.886 433.087 774.752 427.22C767.019 405.22 744.352 361.087 739.952 359.354C735.152 357.487 730.219 358.554 727.552 362.02C725.952 364.02 724.752 366.554 724.752 367.754C724.752 368.954 728.486 376.154 732.886 383.887C749.686 412.42 762.886 444.554 771.686 477.887C774.086 487.487 774.486 491.754 774.219 519.22C773.952 553.22 775.419 578.554 779.552 608.287C784.086 641.887 792.752 679.887 802.086 707.22L806.086 719.087L790.486 734.82C781.819 743.487 774.486 750.554 773.952 750.554C773.552 750.554 771.419 746.554 769.419 741.487C762.886 725.754 749.419 699.62 739.686 683.62L730.086 668.02V652.954C730.086 618.954 725.419 569.22 717.419 515.22C708.086 453.887 706.886 440.287 706.886 395.22C706.752 352.954 707.419 344.687 712.886 317.22C717.819 292.82 727.019 265.887 738.086 243.754C741.019 237.887 743.419 231.62 743.419 230.02C743.419 225.887 740.486 223.62 735.819 224.154C732.486 224.554 731.152 226.287 723.819 241.22C696.352 296.42 687.952 364.02 696.086 463.887C697.152 477.487 699.819 506.82 702.086 529.22C706.619 575.354 710.486 626.82 709.819 634.02L709.419 638.82L701.419 627.754C697.019 621.62 689.019 610.287 683.686 602.554L673.819 588.554L674.352 533.487L674.752 478.287L671.552 475.754C667.152 472.154 661.286 472.554 657.286 476.687L653.819 480.02L654.219 516.554C654.752 556.82 654.886 556.554 647.419 535.887C639.686 514.954 638.752 506.687 638.886 465.887C639.019 445.354 639.686 423.754 640.352 417.754C641.686 407.354 641.952 406.687 648.086 400.42C660.619 387.487 672.219 369.354 677.419 354.42C678.886 350.287 678.886 349.087 677.152 346.554C673.552 341.354 669.952 343.62 664.086 354.554C657.819 366.287 651.552 375.487 647.419 379.22L644.619 381.754L645.286 378.554C645.686 376.687 647.286 368.287 648.752 359.887C669.552 246.287 726.219 145.887 798.752 93.887C819.286 79.2204 837.686 70.287 885.419 52.287C926.219 36.9537 949.286 24.5537 952.086 16.687C953.686 12.0204 950.752 6.42037 945.819 4.68703C942.886 3.62037 940.352 4.5537 929.152 10.9537C912.086 20.687 893.952 29.087 862.752 41.887C808.219 64.1537 783.286 79.887 754.086 110.02C723.819 141.354 691.552 186.82 670.886 227.22C667.552 233.754 664.752 238.687 664.752 238.02C664.752 230.02 653.552 188.154 647.286 172.687C644.486 165.887 643.952 162.954 644.886 161.62C647.419 158.687 672.886 146.82 686.086 142.554C693.019 140.287 699.552 137.62 700.619 136.554C703.286 134.02 701.419 128.154 697.686 127.22C691.819 125.754 661.552 134.82 645.819 142.687C641.552 144.82 637.552 146.554 636.752 146.554C636.086 146.554 633.952 143.62 632.219 140.02C628.619 133.087 625.419 131.354 620.486 133.754C616.352 135.887 616.086 139.754 619.552 147.887C621.152 151.62 622.219 154.954 621.819 155.22C621.552 155.487 617.286 158.687 612.486 162.154C607.552 165.62 600.486 171.22 596.619 174.554L589.686 180.554L590.619 170.287C593.286 140.287 606.352 113.22 628.619 91.2204C637.952 82.0204 639.819 78.1537 636.486 74.8204C632.752 71.087 628.752 73.2204 616.352 85.487C590.486 111.22 577.419 142.287 576.219 181.354L575.686 196.154L569.819 204.42C553.552 226.554 549.286 236.42 517.152 325.22C501.552 368.42 488.486 402.154 484.352 410.02C482.486 413.487 482.352 413.22 476.086 399.087C461.552 366.02 452.352 339.087 447.286 314.554L444.619 301.887L460.352 286.554C469.019 278.154 487.419 260.42 501.286 247.22C548.352 202.554 554.219 191.754 554.619 149.354C554.886 131.754 555.552 123.754 557.286 117.354C561.552 101.487 571.419 85.7537 581.019 79.087C584.886 76.4204 586.086 74.5537 586.086 71.7537C586.086 66.9537 582.086 64.4204 577.819 66.687C569.286 71.087 554.486 87.487 548.752 98.687C543.152 109.62 541.019 119.487 538.752 144.687C535.952 176.287 531.686 190.42 519.952 206.02C512.886 215.62 505.419 222.954 479.419 246.954C466.619 258.687 453.152 271.087 449.552 274.42L443.152 280.554L443.952 265.887C444.352 257.754 445.952 245.754 447.419 239.22C449.952 227.62 457.819 202.554 458.752 202.554C459.686 202.554 509.286 188.154 511.686 187.22C515.152 185.887 517.152 179.754 515.552 175.487C513.019 168.954 509.019 168.287 492.352 171.887C484.086 173.62 475.952 175.22 474.219 175.62L470.886 176.287L474.752 169.754C476.752 166.154 481.952 158.02 486.352 151.754C490.619 145.487 494.086 139.087 494.086 137.487C494.086 134.02 488.486 130.02 485.019 131.087C480.352 132.554 463.819 153.62 452.352 172.42L445.286 184.154L430.752 189.62C422.619 192.554 405.152 200.554 391.819 207.22C378.352 214.02 367.419 218.82 367.419 218.02C367.419 217.354 372.352 206.82 378.352 194.687C389.686 171.754 390.352 168.554 383.286 168.554C378.886 168.554 374.086 176.287 357.952 208.82C344.752 235.354 344.486 235.754 335.686 242.954C314.486 260.02 299.686 276.82 279.152 307.22C243.286 360.02 223.552 402.287 211.952 451.22L208.219 467.22L206.486 459.887C204.219 450.554 203.952 423.22 205.952 411.887C210.486 386.554 222.219 363.887 239.952 346.554C248.086 338.687 249.419 334.154 245.019 330.154C239.952 325.487 235.819 327.487 221.686 341.087C205.552 356.687 191.819 379.754 185.819 401.887C183.419 410.687 183.019 416.154 183.019 433.22C183.019 458.42 185.286 468.287 195.952 489.887L203.286 504.554L202.086 518.554C201.419 526.287 200.886 536.687 200.752 541.754V550.82L190.752 561.487C177.552 575.62 165.019 591.22 155.152 606.154C150.619 612.954 146.886 618.554 146.619 618.554C146.486 618.554 148.086 614.154 150.086 608.687C158.086 588.02 168.219 553.22 172.086 532.554C173.686 524.554 173.686 522.82 171.952 520.154C169.686 516.687 163.286 516.154 160.752 519.087C159.952 520.154 157.552 528.42 155.419 537.487C148.352 568.02 139.952 593.754 121.152 642.554C90.8856 720.82 82.0856 756.02 81.5522 798.954L81.4189 818.554L79.0189 812.954C68.0856 787.754 60.8856 757.22 59.8189 732.554C58.4855 700.687 62.4856 684.154 83.9522 630.82C99.4189 592.554 104.619 576.82 109.419 554.554C112.752 538.554 112.352 534.554 107.552 534.554C103.819 534.554 103.019 536.287 96.0856 556.554C88.0856 580.02 76.3522 608.42 61.6856 639.22C55.4189 652.42 49.0189 667.087 47.5522 671.887C42.7522 686.42 40.3522 704.287 40.3522 726.554C40.3522 780.42 56.3522 831.487 85.8189 871.754C89.9522 877.354 93.1522 884.287 96.7522 894.954C99.5522 903.354 104.752 915.754 108.086 922.687C115.552 937.354 124.486 970.554 121.019 970.554C120.086 970.554 89.8189 953.887 75.9522 945.754C72.4856 943.754 71.1522 941.354 67.4189 930.02C63.1522 916.82 49.5522 888.42 45.1522 883.62C42.4855 880.687 35.0189 880.42 32.2189 883.354C28.0855 887.354 28.3522 891.087 33.2855 900.02C38.3522 909.354 43.8189 922.554 43.0189 923.487C42.6189 923.754 36.2189 919.087 28.7522 912.954C21.1522 906.82 13.5522 900.82 11.8189 899.354C5.15221 894.287 -3.24779 901.62 1.28555 908.687C4.21888 913.087 22.7522 929.087 37.6855 940.02C44.8855 945.354 51.0189 949.754 51.2855 950.02C52.0855 950.82 55.2855 967.487 56.7522 979.354C57.5522 985.887 58.7522 1004.95 59.4189 1021.89C61.4189 1074.69 67.2856 1090.95 108.886 1160.02C132.752 1199.75 141.419 1217.22 150.219 1244.15C153.819 1254.95 156.752 1264.15 156.752 1264.69C156.752 1266.29 141.419 1251.49 131.019 1240.02C121.952 1229.89 111.686 1215.89 100.219 1197.62C96.0856 1190.95 91.5522 1189.22 86.7522 1192.42C82.2189 1195.35 81.1522 1200.42 84.0856 1206.42C88.8856 1216.69 104.886 1242.42 113.419 1253.89C130.752 1276.95 152.752 1298.69 169.819 1309.89C175.019 1313.35 176.619 1315.89 187.952 1339.09C230.086 1425.89 278.486 1490.55 332.886 1532.55C365.286 1557.62 377.286 1570.15 402.752 1605.89C433.152 1648.55 459.686 1671.75 508.752 1698.55C517.152 1703.22 525.286 1707.75 526.752 1708.55C530.619 1710.95 547.019 1758.29 555.419 1791.49L556.886 1797.22H580.086H603.419L598.886 1784.82C592.886 1768.29 584.886 1748.82 577.419 1732.02C574.086 1724.42 571.686 1717.89 572.086 1717.35C574.086 1715.49 590.219 1717.22 601.419 1720.55C608.086 1722.42 628.486 1730.02 646.752 1737.35C689.952 1754.82 705.552 1760.42 726.752 1765.89C749.286 1771.75 768.752 1774.55 787.419 1774.55C801.019 1774.55 803.952 1775.09 816.619 1779.09C849.686 1789.89 879.819 1793.62 932.086 1793.75C973.819 1793.89 988.752 1792.69 1018.75 1786.95C1033.95 1784.02 1041.29 1783.35 1058.09 1783.22C1081.02 1783.22 1087.69 1784.15 1123.42 1792.55C1137.02 1795.75 1151.95 1799.09 1156.75 1800.02C1168.49 1802.29 1197.29 1802.15 1203.95 1799.75C1210.22 1797.49 1212.75 1794.29 1210.62 1790.82C1209.42 1788.95 1206.22 1788.42 1192.62 1787.62C1172.09 1786.42 1160.62 1784.02 1133.42 1775.62C1095.29 1763.89 1091.82 1763.35 1059.42 1763.35C1034.49 1763.35 1027.95 1763.75 1009.42 1766.82C960.486 1775.09 921.952 1775.09 879.152 1767.09C872.619 1765.89 867.419 1764.42 867.419 1763.75C867.419 1763.09 867.819 1762.55 868.486 1762.55C869.019 1762.55 879.686 1760.42 892.352 1757.89C980.619 1740.02 1040.09 1739.35 1137.42 1755.22C1190.89 1763.89 1258.62 1754.29 1310.75 1730.69C1318.75 1727.09 1321.15 1726.55 1331.95 1726.55C1346.35 1726.55 1366.75 1723.62 1379.69 1719.75C1394.35 1715.49 1398.89 1708.69 1392.62 1700.69C1389.69 1696.95 1385.15 1696.29 1376.75 1698.42C1364.09 1701.62 1364.09 1701.62 1375.95 1692.55C1386.09 1684.82 1406.22 1671.89 1408.09 1671.89C1408.49 1671.89 1413.15 1675.75 1418.62 1680.55C1424.09 1685.22 1429.95 1689.49 1431.82 1689.89C1437.95 1691.49 1444.62 1686.02 1444.75 1679.62C1444.75 1674.15 1443.55 1672.29 1436.62 1666.69L1430.09 1661.49L1441.69 1657.22C1448.22 1654.95 1461.15 1650.95 1470.75 1648.69C1483.55 1645.35 1488.35 1643.62 1489.82 1641.49C1491.42 1639.09 1491.29 1638.42 1488.89 1636.02C1486.89 1634.02 1485.02 1633.49 1481.82 1634.02C1465.02 1636.82 1448.62 1640.95 1434.09 1646.02L1417.15 1651.89L1401.29 1641.09C1392.62 1635.22 1381.55 1628.15 1376.75 1625.49L1368.22 1620.69L1373.69 1618.29C1390.89 1610.82 1428.22 1602.29 1475.29 1595.22C1539.29 1585.62 1563.02 1579.09 1595.55 1562.42C1621.55 1549.09 1646.35 1530.02 1661.82 1511.49C1673.82 1497.22 1681.42 1485.75 1698.09 1456.55C1713.95 1428.55 1721.42 1417.62 1733.42 1404.02C1738.75 1397.89 1742.09 1392.95 1742.09 1390.95C1742.09 1387.22 1737.69 1382.55 1734.09 1382.55C1725.42 1382.55 1693.95 1422.42 1673.15 1459.75C1668.22 1468.55 1664.09 1475.62 1663.95 1475.49C1663.82 1475.35 1664.89 1469.89 1666.22 1463.35C1667.55 1456.82 1669.02 1446.82 1669.55 1440.95C1670.35 1431.89 1670.09 1430.15 1668.09 1427.89C1666.75 1426.42 1664.35 1425.22 1662.62 1425.22C1659.82 1425.22 1655.42 1428.29 1655.42 1430.29C1655.42 1430.82 1654.49 1437.22 1653.42 1444.55C1647.15 1485.75 1627.02 1521.75 1598.75 1541.89C1571.42 1561.35 1523.55 1576.42 1465.69 1583.89C1436.62 1587.62 1434.89 1587.22 1454.09 1581.35C1509.95 1564.55 1556.22 1538.02 1592.22 1502.02C1631.29 1462.82 1652.49 1421.22 1662.75 1363.22C1664.09 1355.89 1665.55 1348.02 1666.09 1345.89L1666.89 1341.89L1680.22 1342.29C1687.42 1342.55 1697.69 1343.35 1702.75 1343.89C1710.09 1344.82 1712.75 1344.69 1715.02 1343.09C1719.02 1340.55 1720.22 1335.35 1717.69 1331.35C1715.02 1327.49 1710.49 1326.69 1687.15 1326.42C1669.29 1326.29 1668.75 1326.15 1668.75 1323.49C1668.75 1319.35 1669.69 1318.42 1680.35 1312.15C1714.62 1292.02 1741.82 1257.89 1753.55 1220.55L1756.89 1209.89L1769.69 1203.35C1800.62 1187.62 1823.55 1163.75 1840.62 1129.75C1852.75 1105.35 1853.82 1100.95 1848.09 1098.29C1843.42 1096.15 1840.75 1099.09 1836.22 1112.02C1825.95 1140.82 1804.89 1164.69 1772.75 1183.75L1761.42 1190.55L1760.75 1171.75C1760.22 1155.22 1759.82 1152.82 1757.55 1151.09C1753.82 1148.42 1748.22 1148.82 1745.29 1152.02C1743.29 1154.29 1742.75 1157.89 1741.95 1174.55C1741.42 1185.49 1740.62 1195.62 1740.09 1197.09C1739.42 1199.22 1735.82 1200.95 1724.49 1204.55C1710.35 1209.22 1679.29 1217.22 1675.82 1217.22C1674.62 1217.22 1674.09 1214.95 1674.09 1209.89C1674.09 1201.89 1671.15 1197.22 1666.09 1197.22C1660.35 1197.22 1658.09 1201.75 1658.09 1212.82V1223.22L1647.42 1226.95C1636.09 1230.95 1615.15 1240.82 1603.55 1247.75C1599.69 1250.15 1596.22 1251.75 1595.82 1251.49C1595.55 1251.09 1596.35 1242.02 1597.69 1231.22L1600.09 1211.49L1605.42 1209.35C1615.69 1205.49 1649.55 1188.15 1664.75 1179.22C1699.82 1158.42 1724.22 1140.29 1747.95 1117.22C1771.82 1094.02 1785.29 1076.95 1797.29 1054.55C1801.29 1047.09 1804.75 1042.69 1809.55 1038.82C1838.49 1016.02 1857.95 982.954 1863.42 947.22C1865.82 932.42 1865.42 902.154 1862.75 884.554C1860.75 871.22 1853.55 840.687 1848.22 822.287C1845.69 813.887 1842.89 810.154 1839.69 810.82C1835.82 811.62 1834.75 815.354 1836.49 821.487C1841.95 839.887 1847.55 863.887 1849.29 876.154C1852.09 894.554 1852.09 927.487 1849.29 943.22C1844.49 971.22 1833.02 995.754 1816.89 1013.22C1811.69 1018.82 1811.29 1018.95 1811.95 1015.62C1812.49 1013.62 1813.15 1008.55 1813.55 1004.29C1814.22 997.62 1813.95 996.02 1811.42 992.82C1807.95 988.42 1801.02 987.887 1797.55 991.754C1796.22 993.22 1794.09 999.487 1792.75 1005.89C1780.89 1059.89 1726.49 1122.29 1654.22 1164.82C1638.35 1174.15 1603.55 1191.22 1602.49 1190.15C1602.09 1189.75 1602.22 1186.02 1602.62 1182.02L1603.55 1174.69L1615.15 1168.42C1629.42 1160.69 1648.75 1147.62 1661.29 1137.35C1675.15 1126.02 1695.02 1104.69 1703.15 1092.55C1716.89 1072.02 1732.09 1036.95 1740.75 1005.89C1743.29 996.554 1744.62 994.287 1751.29 987.22C1766.62 971.087 1778.22 953.754 1789.02 930.954C1803.15 900.954 1812.75 861.754 1807.15 856.154C1806.22 855.22 1803.55 854.554 1801.29 854.554C1795.82 854.554 1792.75 858.554 1792.75 865.62C1792.75 880.154 1783.69 911.487 1773.82 931.22C1767.29 944.02 1750.22 969.354 1750.09 966.287C1750.09 965.887 1751.29 958.287 1752.75 949.62C1755.69 931.754 1759.42 895.354 1759.42 883.62C1759.42 873.354 1757.95 870.554 1752.22 870.554C1749.69 870.554 1747.02 871.354 1746.22 872.42C1745.42 873.487 1744.09 881.087 1743.42 889.354C1740.75 920.554 1735.55 952.954 1727.82 987.62C1726.35 994.287 1704.35 1006.42 1687.42 1010.02C1677.42 1012.15 1637.69 1013.22 1635.82 1011.35C1635.29 1010.82 1636.09 1007.09 1637.69 1002.82C1640.22 995.487 1640.49 995.22 1646.22 994.287C1681.82 988.154 1700.09 978.954 1717.42 958.687C1723.82 951.087 1724.89 946.954 1721.02 943.487C1717.02 939.754 1714.62 940.82 1707.29 949.22C1694.89 963.487 1681.02 970.687 1658.09 975.087C1652.62 976.154 1647.82 976.82 1647.55 976.554C1646.62 975.62 1655.55 951.62 1660.35 942.02C1667.95 926.954 1674.62 917.087 1699.95 883.22C1713.15 865.62 1727.95 844.954 1733.02 837.487C1740.62 825.754 1743.69 822.554 1752.35 816.154C1795.02 785.22 1830.22 750.687 1852.62 718.02C1859.42 708.02 1860.75 705.087 1860.75 700.42C1860.75 695.754 1860.09 694.154 1856.62 691.354C1852.35 687.754 1846.49 686.82 1842.09 689.22C1840.75 690.02 1835.82 696.154 1831.29 702.954C1826.75 709.62 1819.29 719.754 1814.89 725.22C1805.82 736.42 1773.95 769.62 1773.15 768.687C1772.89 768.42 1775.29 762.82 1778.49 756.42C1788.09 737.354 1799.42 709.887 1799.42 706.02C1799.42 701.62 1792.89 694.554 1788.75 694.554C1781.69 694.554 1778.89 697.887 1770.89 715.487C1745.55 771.22 1706.89 837.087 1671.15 885.087C1649.95 913.487 1642.62 926.82 1629.42 959.887C1625.15 970.554 1621.55 979.354 1621.42 979.62C1621.15 979.887 1616.89 980.554 1611.95 981.354C1590.22 984.287 1570.89 990.687 1556.35 999.754C1549.95 1003.75 1545.82 1005.35 1538.09 1006.42C1482.75 1014.82 1431.95 1042.82 1352.75 1108.42C1322.22 1133.75 1298.89 1155.22 1285.15 1170.42C1270.35 1186.95 1251.15 1212.15 1242.22 1226.82L1236.09 1236.95L1226.09 1237.89C1220.62 1238.42 1206.75 1239.89 1195.55 1241.35C1184.22 1242.69 1174.62 1243.62 1174.35 1243.35C1173.42 1242.29 1179.42 1220.02 1182.49 1213.09C1186.62 1203.75 1193.55 1196.15 1217.95 1174.55C1249.95 1146.29 1256.22 1135.75 1257.95 1106.69L1258.75 1094.02L1300.75 1079.89C1413.02 1041.89 1485.29 1009.22 1547.42 968.554C1573.95 951.22 1592.35 936.554 1610.75 918.02C1651.42 877.22 1678.89 831.354 1698.75 771.22C1702.62 759.487 1707.29 743.62 1708.89 736.02L1712.09 722.154L1727.42 714.954C1754.49 702.42 1755.15 701.887 1753.55 695.354C1751.82 688.42 1747.95 688.287 1731.42 695.087L1716.35 701.22L1717.29 694.154C1721.29 662.554 1722.35 646.687 1722.35 618.554C1722.35 582.82 1721.15 568.954 1714.75 530.554C1708.49 492.82 1704.89 459.754 1703.95 430.554C1703.02 403.887 1702.09 399.887 1696.09 399.887C1694.35 399.887 1691.95 400.954 1690.62 402.154C1687.02 405.887 1688.75 447.354 1694.62 495.887C1703.95 571.62 1703.95 571.754 1703.95 611.887C1703.95 651.487 1702.62 666.687 1696.62 698.154L1693.95 712.687L1687.69 715.887C1684.22 717.754 1675.42 723.22 1668.09 728.02C1660.75 732.82 1654.22 736.954 1653.69 737.354C1652.35 738.02 1652.35 699.754 1653.55 673.62L1654.49 656.154L1666.22 645.754C1682.09 631.754 1692.75 619.354 1692.75 614.687C1692.75 608.954 1689.29 605.22 1683.95 605.22C1679.69 605.22 1677.95 606.554 1668.62 616.154L1657.95 627.22L1658.75 621.22C1660.22 611.087 1666.22 586.554 1670.22 574.687C1674.75 561.354 1675.02 556.82 1671.42 553.22C1667.82 549.62 1662.62 549.887 1658.89 553.62C1651.69 560.82 1639.42 600.954 1634.62 633.22C1633.29 641.62 1631.69 649.354 1631.02 650.154C1629.55 652.287 1601.82 670.687 1601.15 670.154C1601.02 669.887 1602.62 664.287 1604.89 657.754C1607.02 651.22 1611.29 636.554 1614.35 625.22C1619.02 606.954 1619.82 602.287 1620.35 585.087C1620.89 572.82 1620.49 561.354 1619.42 554.42L1617.82 543.22L1625.55 536.154C1629.82 532.287 1637.69 526.287 1643.02 522.82C1658.89 512.82 1660.75 510.954 1660.75 505.887C1660.75 500.42 1656.49 495.887 1651.42 495.887C1647.55 495.887 1638.75 501.087 1626.35 510.82C1621.69 514.42 1617.55 517.087 1617.15 516.82C1616.89 516.42 1617.29 510.287 1618.09 503.22C1621.55 475.754 1617.02 416.687 1610.62 406.82C1608.22 403.22 1603.29 402.954 1600.35 406.287C1598.22 408.554 1598.22 409.887 1600.09 422.02C1604.35 451.754 1605.82 481.22 1603.55 492.554C1602.89 495.487 1602.35 497.087 1602.22 496.154C1602.22 495.22 1595.02 478.42 1586.35 458.82C1564.75 410.287 1562.35 404.02 1564.89 402.42C1565.95 401.754 1573.82 398.954 1582.62 396.287C1600.89 390.42 1604.09 387.754 1600.09 381.754C1597.95 378.554 1597.29 378.287 1591.29 379.087C1587.69 379.62 1579.82 381.487 1573.69 383.354C1567.69 385.22 1561.42 387.087 1559.95 387.354C1557.42 388.02 1556.75 386.82 1552.75 372.554C1542.75 336.154 1539.15 309.887 1539.02 271.887C1539.02 254.02 1539.82 237.754 1541.29 224.82C1543.42 206.687 1543.42 204.82 1541.55 201.887C1539.95 199.487 1538.22 198.554 1535.02 198.554C1526.62 198.554 1525.55 200.954 1522.89 225.22C1516.62 283.087 1519.95 328.154 1534.35 380.42C1536.49 388.42 1538.62 395.62 1538.89 396.554C1539.42 397.754 1534.35 401.22 1532.09 401.22C1531.82 401.22 1530.22 398.02 1528.35 394.154C1526.62 390.287 1519.29 378.02 1512.22 366.687C1493.29 337.087 1487.42 322.687 1487.42 305.087C1487.42 295.354 1484.09 290.554 1477.29 290.554C1474.49 290.554 1471.69 291.62 1469.95 293.354C1467.29 296.02 1467.15 297.22 1467.82 305.754C1469.69 326.954 1475.55 342.42 1493.95 374.42C1503.95 391.754 1512.75 409.754 1512.75 412.954C1512.75 413.62 1507.55 418.287 1501.15 423.354C1494.62 428.42 1482.62 439.22 1474.49 447.354L1459.42 462.287L1451.29 437.354C1442.35 409.887 1435.15 381.887 1432.62 365.22C1430.35 349.22 1431.69 319.22 1435.42 306.554C1441.42 285.754 1455.42 261.22 1475.95 235.754C1480.89 229.887 1484.75 223.887 1484.75 222.554C1484.75 220.154 1478.89 214.554 1476.49 214.554C1473.82 214.554 1456.09 233.087 1446.22 246.154C1428.89 269.22 1418.89 293.087 1415.29 319.487C1413.15 335.487 1414.49 368.554 1418.09 388.42C1422.49 413.087 1435.15 460.02 1443.02 480.554C1443.29 481.354 1440.75 485.62 1437.29 489.887C1432.09 496.687 1413.82 523.754 1403.55 539.887L1400.62 544.554L1401.29 499.22C1401.69 466.42 1402.62 446.687 1404.62 427.887C1406.22 413.62 1407.69 401.087 1408.09 400.154C1409.02 397.487 1406.49 392.287 1403.82 391.62C1400.49 390.687 1395.95 392.554 1395.02 395.22C1394.49 396.42 1392.89 406.82 1391.42 418.287C1384.09 476.554 1380.75 529.62 1383.02 556.687L1384.35 573.887L1376.75 589.22C1372.62 597.62 1363.02 618.554 1355.42 635.754C1340.75 668.954 1328.09 692.287 1315.29 710.02C1303.55 726.42 1304.22 726.687 1301.42 705.487C1299.42 689.754 1299.29 685.487 1300.62 676.02C1304.62 649.087 1319.69 619.354 1347.55 583.62C1353.29 576.154 1358.09 569.087 1358.09 567.887C1358.09 564.82 1353.82 561.22 1350.49 561.22C1343.29 561.22 1315.69 598.82 1302.09 627.087C1287.29 658.02 1285.15 668.687 1287.95 697.754C1289.02 709.487 1290.22 723.887 1290.62 729.62L1291.15 739.887L1281.55 748.687C1276.22 753.487 1266.75 761.087 1260.62 765.487C1249.42 773.487 1233.02 783.22 1232.22 782.42C1231.95 782.154 1231.29 778.554 1230.89 774.42C1229.95 766.954 1229.95 766.82 1234.49 764.02C1241.55 759.754 1251.29 748.554 1254.89 740.687C1262.09 724.82 1262.22 710.154 1255.42 673.22C1253.29 661.087 1251.42 650.02 1251.42 648.42C1251.42 646.554 1255.15 642.687 1262.89 636.554C1278.35 624.02 1298.22 603.087 1308.62 588.287C1325.15 564.82 1342.62 531.487 1355.02 499.354C1365.42 472.42 1374.49 427.22 1376.22 393.087L1377.15 376.554L1383.55 367.887C1397.69 349.087 1407.69 324.154 1409.55 303.354C1410.62 291.887 1409.42 289.22 1403.29 289.22C1398.49 289.22 1396.75 292.954 1396.75 303.087C1396.75 316.954 1389.55 337.62 1380.75 348.82L1378.35 351.887L1377.69 348.42C1377.42 346.687 1377.02 339.62 1376.89 332.82C1376.22 292.82 1366.49 227.754 1353.69 176.687C1348.49 156.42 1346.09 152.287 1340.22 153.754C1334.62 155.087 1334.75 159.22 1341.29 185.487C1354.35 238.554 1361.02 286.154 1362.89 341.62L1363.82 367.487L1349.95 380.954C1342.35 388.287 1335.95 394.154 1335.82 394.02C1335.55 393.887 1336.89 387.087 1338.75 379.087C1343.82 356.287 1346.22 334.954 1347.02 303.887C1347.69 277.887 1347.55 274.954 1345.55 272.82C1342.75 270.02 1340.22 269.887 1337.69 272.42C1336.22 273.887 1335.69 280.954 1335.02 304.154C1334.62 320.554 1333.29 340.154 1332.09 347.887C1320.09 426.154 1284.89 481.22 1212.22 536.02C1205.42 541.087 1199.42 545.22 1198.89 545.22C1196.35 545.22 1203.55 493.487 1208.89 472.954C1209.82 469.087 1212.62 466.154 1223.15 457.754C1296.49 398.82 1320.22 333.087 1303.29 235.22C1301.69 226.42 1299.69 217.887 1298.62 216.154C1296.22 212.554 1291.29 212.287 1288.22 215.754C1285.95 218.287 1285.95 219.22 1288.22 235.487C1291.82 260.42 1291.55 301.62 1287.55 323.087C1280.89 359.887 1266.22 390.287 1244.22 412.42C1234.89 421.887 1222.09 431.754 1222.09 429.487C1222.09 427.22 1231.95 404.02 1238.62 390.554C1242.49 382.82 1249.29 370.554 1253.95 363.22C1263.42 348.287 1264.09 343.487 1257.82 339.887C1252.09 336.82 1248.22 339.887 1239.15 354.554C1214.22 394.954 1195.55 443.62 1184.62 496.554L1183.02 504.554L1181.69 499.887C1181.02 497.354 1180.49 484.954 1180.49 472.554C1180.35 452.954 1181.02 445.354 1185.42 416.554C1189.15 391.62 1190.49 377.754 1190.89 361.487L1191.42 339.887L1203.42 329.754C1224.22 312.287 1241.82 291.22 1250.22 273.487C1255.29 263.087 1255.15 256.687 1249.82 252.82C1243.42 248.02 1239.82 250.554 1231.82 265.62C1227.95 272.82 1221.69 283.22 1217.82 288.82C1210.75 298.954 1191.42 319.887 1189.02 319.887C1188.35 319.887 1187.29 317.62 1186.89 314.82C1185.02 304.287 1180.22 289.754 1177.69 286.82C1172.89 281.62 1164.22 283.087 1161.42 289.62C1159.95 293.087 1160.09 294.82 1161.55 299.754C1164.75 310.02 1167.42 323.754 1167.42 329.887C1167.42 335.487 1167.15 335.887 1159.82 340.287C1155.55 342.82 1145.95 348.02 1138.49 351.754L1124.75 358.554V350.687C1124.75 339.887 1127.02 317.22 1129.42 305.22C1131.69 294.02 1131.55 294.154 1153.42 276.687C1190.75 246.82 1243.95 215.22 1289.82 195.754C1303.55 189.887 1305.82 187.887 1304.09 182.687C1302.49 177.754 1298.75 178.287 1280.35 186.42C1231.55 208.02 1191.02 231.354 1156.75 257.754C1144.75 266.954 1143.15 267.754 1145.69 263.887C1155.42 248.554 1171.55 233.22 1193.02 219.087C1200.09 214.42 1206.09 209.887 1206.49 208.954C1207.42 206.154 1204.89 202.554 1201.95 202.554C1198.62 202.554 1176.89 213.487 1167.02 220.154C1156.62 227.22 1143.42 239.887 1135.95 249.754C1129.15 258.687 1120.09 276.02 1115.42 288.687C1112.75 296.287 1110.22 299.22 1081.69 328.154C1055.69 354.42 1022.89 383.754 1021.15 382.02C1020.89 381.887 1022.22 372.42 1024.22 361.22L1027.55 340.82L1035.42 329.22C1052.49 303.754 1075.95 279.087 1096.75 264.42C1106.35 257.754 1107.42 256.554 1107.42 252.687C1107.42 242.954 1100.62 242.82 1087.29 252.154C1076.49 259.62 1051.95 283.62 1044.89 293.487C1042.35 297.087 1040.09 299.62 1039.69 299.354C1038.49 298.154 1053.15 261.354 1061.15 245.22L1069.42 228.554L1081.02 226.287C1128.75 216.954 1161.42 192.954 1181.69 152.554C1183.95 148.154 1189.82 133.754 1194.75 120.554C1199.69 107.354 1205.15 93.7537 1207.02 90.1537C1209.69 84.9537 1209.95 83.3537 1208.62 80.8204C1205.55 74.9537 1200.22 74.1537 1195.69 78.9537C1192.62 82.1537 1183.29 101.487 1176.75 117.887C1170.35 134.154 1161.42 152.554 1155.95 160.687C1144.22 178.287 1127.82 192.02 1109.15 199.754C1098.49 204.02 1082.35 208.687 1081.29 207.487C1079.55 205.754 1105.95 166.954 1124.09 144.687C1137.82 127.887 1138.49 126.687 1136.22 123.22C1135.29 121.754 1133.02 120.42 1131.15 120.154C1128.49 119.887 1126.35 121.887 1118.62 131.487C1059.29 205.887 1016.89 296.554 1003.15 378.42L1000.09 396.42L990.886 402.287C985.952 405.487 971.286 413.62 958.352 420.287L934.886 432.42L937.819 427.487C939.419 424.687 949.286 410.954 959.686 396.82C1000.22 341.887 1013.95 316.02 1024.09 275.887C1031.42 247.087 1033.42 204.82 1029.42 170.02C1028.35 160.42 1027.82 152.287 1028.35 151.754C1029.02 151.22 1043.29 141.354 1060.09 129.887C1122.09 87.3537 1145.55 66.9537 1169.69 34.8204C1174.75 28.287 1180.89 18.9537 1183.42 14.1537C1187.95 5.62037 1187.95 5.3537 1185.55 2.68703C1182.62 -0.512968 1180.75 -0.779635 1177.82 1.48703ZM1017.55 191.887C1018.89 226.42 1014.75 260.02 1005.69 287.887L1001.69 300.554L999.952 288.154C999.019 281.354 997.152 271.754 995.952 266.82C993.019 254.42 983.552 230.687 980.619 227.754C975.419 222.554 966.086 226.02 966.086 233.087C966.086 235.087 967.819 240.82 969.952 246.02C978.352 265.754 984.752 299.487 984.752 323.487V334.954L975.952 348.02C971.152 355.22 959.286 370.954 949.686 382.82C926.752 411.354 913.686 428.954 908.352 438.554C905.152 444.42 902.752 446.954 899.019 448.687C896.352 449.887 893.686 450.687 893.286 450.287C891.819 448.687 890.086 409.22 890.886 395.22L891.686 380.554L899.152 376.02C908.886 370.02 923.686 355.887 930.886 345.754C938.752 334.82 949.286 312.42 949.286 306.687C949.286 301.754 946.219 298.554 941.419 298.554C937.419 298.554 934.886 301.754 930.752 312.287C925.419 325.487 917.819 336.554 905.552 348.554L894.752 359.22L894.352 355.087C893.819 349.887 899.686 320.287 904.219 305.62C911.952 279.754 925.286 253.354 942.086 230.554C952.886 215.887 983.019 185.887 1000.75 172.287L1014.75 161.487L1015.69 165.62C1016.22 168.02 1017.02 179.754 1017.55 191.887ZM638.886 202.554C643.152 219.087 647.019 241.087 648.619 258.82L649.952 272.954L644.619 288.82C633.952 320.42 626.486 352.954 622.086 386.954L619.552 406.687L613.286 413.62C593.419 435.754 583.819 461.354 581.152 499.22C580.219 513.887 580.219 513.887 579.152 505.887C577.552 493.354 577.686 428.82 579.286 412.554C581.819 388.82 585.686 366.687 592.219 340.154C604.486 289.754 605.019 274.154 595.686 234.554C594.086 228.287 592.486 220.154 592.086 216.42L591.152 209.62L600.219 199.22C605.152 193.62 613.686 185.087 619.286 180.287L629.286 171.754L632.486 180.82C634.086 185.754 637.019 195.62 638.886 202.554ZM845.286 206.42C851.286 216.154 856.352 229.487 857.552 238.287C859.552 253.754 851.686 276.554 838.752 292.287C829.552 303.62 816.486 313.887 802.752 320.554C784.086 329.62 785.819 330.02 780.752 314.954C775.152 298.287 773.819 279.354 777.419 267.087C781.686 252.154 788.352 241.487 802.086 227.887C812.619 217.354 836.352 198.82 839.686 198.554C840.219 198.554 842.752 202.02 845.286 206.42ZM432.086 215.487C425.952 231.22 420.752 262.82 420.752 284.554V300.554L399.819 321.887C377.286 344.954 359.152 365.487 344.219 384.82L334.752 397.22L334.352 378.154C333.552 344.287 338.352 309.754 348.886 271.087L353.019 256.154L364.486 248.287C380.886 236.954 393.552 229.887 412.752 220.954C430.752 212.687 433.552 211.887 432.086 215.487ZM583.952 263.22C583.952 287.22 583.686 289.487 571.286 338.554C557.019 395.354 552.619 433.62 555.286 475.22C559.952 545.754 573.819 595.487 615.552 691.887C639.286 746.82 653.952 782.82 663.419 809.22L671.419 831.22L663.152 844.554C638.352 884.82 625.019 907.354 618.752 919.887C600.752 955.887 592.352 989.754 590.352 1034.42L589.419 1054.95L579.286 1037.75C565.686 1014.69 558.486 1000.95 550.086 982.154C544.086 968.554 543.419 966.154 545.019 964.154C545.952 962.954 551.152 956.82 556.619 950.554C581.552 921.754 594.886 898.954 601.686 873.887C604.752 862.154 605.286 858.02 605.286 839.22C605.419 818.154 605.286 817.62 599.152 792.554C591.952 763.62 589.686 744.954 590.886 726.154C591.686 714.82 591.552 712.82 589.419 710.554C587.019 707.887 582.619 707.087 579.952 708.954C576.886 710.954 575.552 715.887 574.086 731.487C572.086 750.954 573.419 767.487 579.552 796.954C587.152 833.487 584.886 855.087 570.486 882.954C564.086 895.22 547.952 918.287 537.686 929.887L531.819 936.554L527.686 923.887C522.886 908.82 519.019 904.554 513.152 907.887C506.352 911.754 506.219 913.087 512.752 932.154C516.086 941.754 518.886 950.154 519.152 950.554C519.286 951.087 514.619 957.087 508.752 964.02C502.886 970.954 493.952 981.754 489.019 988.154C484.086 994.554 479.686 999.754 479.152 999.754C477.019 1000.02 478.086 958.82 480.886 936.554C483.286 916.554 484.086 913.22 487.419 907.887C518.086 859.487 533.286 825.754 544.752 780.554C559.686 722.02 561.819 654.687 550.619 589.887C544.886 556.42 532.352 521.087 505.552 462.954L496.886 444.02L504.619 428.287C520.619 395.887 535.019 355.754 547.286 309.887C557.019 273.087 563.686 254.82 575.019 234.687L579.952 225.887L581.952 233.887C583.286 239.487 583.952 248.42 583.952 263.22ZM327.419 286.687C315.819 324.687 310.619 372.42 313.952 408.687L315.552 426.154L311.286 433.354C305.819 442.687 291.552 471.487 286.886 482.554C283.686 490.154 282.486 491.754 277.019 494.554C266.886 499.887 248.752 511.62 238.352 519.487C232.886 523.487 228.219 526.554 227.952 526.154C227.019 525.22 229.952 489.354 232.219 473.887C240.886 415.22 265.019 357.62 300.886 309.754C309.819 297.887 328.619 276.687 329.552 277.62C329.819 277.887 328.886 281.887 327.419 286.687ZM1105.29 328.82C1104.35 333.887 1102.89 343.62 1102.09 350.554C1099.42 373.354 1100.89 370.687 1086.75 379.087C1063.15 393.22 1040.09 414.554 1026.22 434.954C1022.49 440.554 1019.15 445.22 1018.89 445.22C1017.95 445.22 1018.22 413.887 1019.15 408.42C1019.95 403.354 1021.15 402.154 1033.42 392.82C1051.29 379.487 1069.69 361.887 1087.82 340.82C1096.09 331.354 1103.29 322.687 1104.09 321.754C1106.62 318.154 1107.02 320.02 1105.29 328.82ZM427.286 341.087C432.886 366.554 443.819 397.487 459.686 432.954L466.486 447.887L454.752 468.154C439.952 494.02 423.019 519.62 400.886 549.62L383.419 573.487L379.286 564.287C377.019 559.354 373.152 550.554 370.752 544.954L366.352 534.554L375.286 526.687C399.552 505.22 413.419 480.954 416.086 455.62C417.019 447.22 416.886 446.554 413.686 443.354C409.819 439.487 407.819 439.22 402.886 441.354C399.152 443.087 397.952 445.754 395.019 459.22C392.086 472.554 388.219 482.287 381.952 492.02C376.619 500.287 362.619 515.887 360.619 515.887C358.219 515.887 346.219 474.154 341.419 449.22C340.219 442.954 339.019 436.954 338.619 435.754C337.952 433.487 355.019 407.354 370.752 386.554C392.486 357.887 421.819 324.287 423.419 326.154C423.819 326.687 425.686 333.487 427.286 341.087ZM1162.09 403.887C1155.29 450.42 1153.95 475.754 1157.29 498.287C1159.82 514.954 1165.15 532.687 1171.42 545.354L1175.69 553.62L1176.09 594.42C1176.35 621.754 1177.15 640.554 1178.62 651.22C1181.55 674.154 1182.35 671.887 1169.82 680.687C1155.69 690.554 1137.55 708.154 1119.69 728.954C1112.09 738.02 1105.55 745.087 1105.29 744.82C1105.02 744.554 1103.55 737.22 1102.09 728.42C1100.62 719.754 1097.82 707.087 1096.09 700.287L1092.75 688.154L1101.42 675.354C1116.49 653.087 1127.02 628.687 1132.35 603.887C1136.75 583.22 1134.89 538.82 1129.42 533.354C1128.35 532.287 1125.69 531.487 1123.29 531.487C1117.55 531.487 1113.55 536.287 1114.62 541.887C1115.02 544.02 1115.82 554.154 1116.22 564.154C1117.55 591.62 1113.82 609.887 1102.09 633.487C1095.42 646.687 1084.89 663.087 1083.82 662.02C1083.29 661.487 1077.82 650.287 1071.55 636.82C1058.49 608.687 1058.62 609.62 1064.75 584.287C1070.75 560.154 1078.89 536.42 1091.15 507.887C1103.42 479.354 1108.49 464.42 1113.95 441.22C1117.95 424.287 1122.09 398.287 1122.09 389.754C1122.09 385.62 1122.75 384.687 1128.22 381.487C1131.69 379.487 1141.69 373.354 1150.62 367.887L1166.75 357.887L1167.15 361.887C1167.42 364.154 1165.02 383.087 1162.09 403.887ZM869.952 420.154C870.086 436.554 870.352 452.42 870.486 455.62L870.752 461.354L859.419 467.354C840.352 477.62 827.286 485.354 814.486 494.02L802.086 502.42V498.154C802.086 482.82 810.486 440.82 818.219 417.087L822.352 404.287L835.286 401.22C844.886 398.954 869.019 391.487 869.419 390.687C869.552 390.554 869.686 403.887 869.952 420.154ZM1358.09 419.354C1348.89 475.887 1327.95 524.954 1293.29 571.354C1282.09 586.42 1264.09 607.087 1254.09 616.554L1248.49 621.887L1249.29 612.554C1250.49 600.42 1254.22 586.554 1259.29 575.62C1264.22 565.087 1264.22 565.22 1260.62 560.687C1257.29 556.554 1250.35 555.887 1247.15 559.487C1243.42 563.62 1235.55 580.687 1232.62 590.82C1230.49 598.287 1229.69 605.087 1229.42 620.554L1228.89 640.42L1217.82 648.82C1211.69 653.354 1206.35 657.22 1205.82 657.22C1203.15 657.354 1198.35 618.554 1197.29 588.554L1196.49 565.887L1209.55 556.954C1260.22 522.42 1293.69 486.82 1316.09 443.62C1324.09 428.287 1324.62 427.487 1342.22 411.22C1363.29 391.62 1362.62 391.354 1358.09 419.354ZM1097.55 401.487C1097.15 403.22 1096.49 408.687 1096.09 413.887C1093.95 437.22 1088.35 456.554 1071.82 498.42C1061.02 525.754 1052.09 553.22 1048.62 569.487C1047.69 573.754 1046.62 577.22 1046.09 577.22C1044.22 577.22 1034.62 547.754 1029.55 526.687C1026.22 513.22 1026.22 512.42 1028.09 498.554C1030.22 482.287 1032.62 472.02 1037.29 460.287C1046.22 437.487 1065.42 416.154 1088.75 402.82C1097.55 397.754 1098.35 397.62 1097.55 401.487ZM1574.75 488.82C1582.49 508.287 1591.42 536.154 1591.42 540.82C1591.42 541.887 1587.15 548.154 1581.95 554.954C1569.95 570.42 1558.49 589.62 1543.42 620.02C1529.82 646.954 1520.75 663.754 1511.55 678.554L1505.42 688.554L1504.49 682.554C1502.89 672.02 1503.42 652.554 1505.42 640.42C1508.49 622.82 1514.75 605.487 1526.22 582.82C1537.29 560.82 1537.69 558.954 1531.15 554.154C1523.82 548.687 1518.89 553.354 1505.55 578.687C1496.62 595.62 1491.15 609.62 1486.35 627.887C1483.02 640.954 1482.75 643.62 1482.89 667.887C1482.89 685.754 1483.55 696.954 1485.02 703.62L1487.02 713.354L1473.82 727.22C1466.62 734.82 1454.62 746.02 1447.29 752.154C1433.82 763.22 1407.55 782.42 1405.82 782.554C1403.15 782.554 1417.55 748.954 1434.75 714.554C1464.75 654.82 1476.49 624.287 1481.42 594.42C1483.02 584.02 1484.22 581.087 1492.89 566.287C1526.09 509.22 1539.15 470.154 1537.69 433.087L1537.02 416.287L1540.49 414.287L1543.95 412.154L1555.15 439.62C1561.15 454.82 1570.09 476.954 1574.75 488.82ZM1000.49 485.354C1001.42 490.287 1001.42 494.687 1000.62 498.02C999.819 500.954 998.752 523.22 998.086 547.754C997.019 586.82 995.152 612.687 993.286 614.42C991.819 616.02 981.419 597.354 976.352 583.887C968.219 562.287 963.952 531.754 965.419 506.42C966.219 491.22 966.219 490.82 963.286 488.687C959.286 486.02 957.686 486.02 954.219 488.82C951.819 490.82 951.152 493.487 949.952 506.287C946.486 543.62 957.552 588.554 978.886 623.887C982.886 630.42 986.086 636.687 986.086 637.887C986.086 641.087 979.019 654.287 971.419 664.954C964.219 675.22 947.286 692.954 939.552 698.554C935.419 701.354 935.019 701.487 935.952 699.22C936.486 697.754 937.286 687.887 937.686 677.22C939.019 643.087 934.619 617.62 917.419 558.554C910.752 535.887 907.419 522.287 907.419 517.887C907.552 502.154 911.819 480.42 917.819 465.487L921.152 457.087L949.952 442.687C965.819 434.687 983.019 425.754 988.086 422.82L997.419 417.354L998.352 447.62C998.752 464.287 999.819 481.22 1000.49 485.354ZM1516.35 447.487C1515.69 465.754 1513.42 476.687 1505.95 497.22C1501.29 509.754 1484.89 544.554 1484.09 543.62C1483.82 543.354 1482.35 536.954 1480.89 529.354C1479.42 521.754 1475.15 506.82 1471.42 496.154L1464.75 476.687L1478.35 462.82C1491.55 449.487 1513.55 430.687 1515.95 430.554C1516.49 430.554 1516.75 438.154 1516.35 447.487ZM617.152 455.487C616.352 480.02 618.219 511.354 621.419 525.754C626.086 547.62 635.552 570.687 648.619 592.287L655.286 603.22L653.286 614.287C651.019 627.354 644.219 648.42 637.019 663.887L631.952 675.22L628.219 667.22C620.886 651.354 606.352 616.287 603.019 606.554C595.152 583.487 593.019 505.22 599.419 475.487C600.886 468.287 603.686 458.554 605.552 453.887C608.752 446.02 615.952 433.22 617.286 433.22C617.552 433.22 617.552 443.22 617.152 455.487ZM329.952 486.02C333.552 499.087 337.952 514.554 339.819 520.154L343.152 530.554L334.219 537.754C317.152 551.754 301.286 569.887 290.886 587.087L286.086 595.087V590.02C286.086 574.154 294.086 535.487 302.619 510.02C307.819 494.287 322.086 460.687 323.019 461.754C323.286 461.887 326.352 472.82 329.952 486.02ZM490.086 499.22C514.752 554.42 525.019 585.62 529.552 619.887C532.219 640.554 531.552 690.554 528.086 715.887C523.019 754.42 512.886 796.82 501.152 829.22C491.686 855.487 491.952 855.354 491.019 831.754C490.086 808.42 488.752 797.22 484.219 777.22L481.019 763.22L486.752 753.22C500.352 729.887 511.286 702.287 516.352 678.554C519.419 664.42 519.686 623.62 516.886 611.22C511.686 587.887 495.819 552.42 487.552 545.487C484.752 543.087 478.886 543.487 476.486 546.154C472.352 551.087 472.486 553.354 477.952 562.42C507.286 611.087 507.819 666.954 479.552 725.887L473.152 739.22L470.619 733.22C467.019 724.42 452.486 694.954 447.552 686.687L443.286 679.487L446.619 667.354C456.086 634.154 458.886 600.687 455.419 565.087C454.219 552.82 453.686 550.82 450.619 548.154C446.486 544.554 443.419 544.42 439.286 547.62C436.352 550.154 436.352 550.42 436.619 579.354C436.752 595.887 436.219 612.82 435.419 618.554C433.419 632.02 428.752 651.887 427.686 651.887C426.752 651.887 398.886 603.887 397.419 599.887C396.619 597.62 415.419 568.42 444.886 526.554C455.419 511.487 467.419 493.887 471.419 487.487C475.419 481.22 479.152 476.42 479.552 476.954C480.086 477.487 484.886 487.487 490.086 499.22ZM874.619 483.487C880.086 512.554 883.552 528.687 890.219 557.22C907.552 630.554 910.619 668.687 902.886 712.554C898.086 739.754 885.952 775.754 873.286 800.154L871.152 804.287L865.819 793.087C856.619 773.487 848.752 754.82 841.286 734.82L833.952 715.487L839.152 710.02C855.019 693.22 868.086 674.02 873.952 658.687C881.552 638.954 881.552 622.42 873.952 589.22C869.819 570.82 869.552 568.554 869.419 542.954C869.419 519.354 869.152 515.754 867.152 513.754C865.286 511.887 864.219 511.754 861.552 512.954C857.019 514.954 855.419 522.954 854.486 547.887C853.686 570.42 855.819 591.487 860.886 612.954C867.019 638.82 861.552 655.22 835.686 687.087L828.219 696.154L826.352 691.087C822.886 680.954 812.886 640.287 809.552 621.887C804.619 594.82 802.086 571.887 801.152 544.42L800.352 520.42L811.019 513.62C826.219 504.02 869.819 480.02 872.352 479.887C873.152 479.887 874.219 481.487 874.619 483.487ZM1451.82 506.82C1463.29 538.554 1464.35 565.487 1455.55 600.287C1450.35 620.954 1442.35 640.42 1419.29 688.82C1393.29 743.62 1384.22 766.82 1377.02 797.087C1376.09 801.354 1374.35 802.687 1360.09 810.82C1351.29 815.754 1343.42 819.887 1342.62 819.887C1341.69 819.887 1341.55 816.82 1342.35 810.154C1348.49 756.42 1380.89 683.62 1419.29 638.02C1427.95 627.754 1430.22 624.287 1429.82 621.487C1429.55 618.687 1428.62 617.754 1425.95 617.487C1421.82 616.954 1417.15 621.487 1402.62 639.887C1360.62 692.954 1333.15 755.887 1325.69 816.554L1324.09 829.887L1304.75 838.154C1276.35 850.154 1278.09 850.554 1286.22 834.42C1298.35 810.02 1306.09 780.287 1306.09 757.354V749.22L1315.55 738.154C1335.69 714.954 1351.55 687.22 1366.75 648.554C1389.95 589.887 1411.29 548.82 1439.29 509.22C1443.95 502.687 1447.95 497.22 1448.09 497.22C1448.22 497.22 1449.95 501.62 1451.82 506.82ZM270.886 532.82C262.619 567.887 260.219 598.154 261.152 655.887C261.819 698.287 263.419 717.754 268.886 750.554C273.952 781.487 284.619 821.62 294.086 845.887C296.886 853.22 297.819 858.42 298.486 870.287L299.419 885.487L289.019 879.754C258.219 862.954 218.352 832.154 219.952 826.687C220.352 825.487 222.219 813.354 224.086 799.62C231.952 741.087 233.019 701.354 229.286 608.82C226.752 546.287 225.152 554.687 242.086 540.554C254.486 530.154 272.886 516.954 273.686 517.754C274.086 518.154 272.752 524.82 270.886 532.82ZM356.752 564.554C359.819 571.887 364.086 581.22 366.219 585.487L370.086 593.087L360.619 608.82C332.219 656.42 313.419 706.954 304.086 759.887L301.286 776.554L298.352 761.22C291.152 722.82 286.619 686.154 285.286 656.554L284.352 637.754L292.619 621.754C297.019 612.82 304.752 600.02 309.686 593.087C319.552 579.354 348.619 548.554 350.086 550.154C350.619 550.687 353.686 557.22 356.752 564.554ZM1594.09 599.754C1590.89 623.487 1577.69 668.02 1564.89 697.887C1554.75 721.487 1537.55 750.82 1524.35 767.087L1521.15 770.954L1520.35 758.954C1519.95 752.287 1517.69 738.82 1515.29 728.954L1511.02 711.087L1518.35 701.087C1533.55 680.287 1542.62 664.82 1569.29 614.554C1575.82 602.42 1584.09 587.62 1587.82 581.487L1594.75 570.554L1595.15 579.487C1595.42 584.554 1594.89 593.62 1594.09 599.754ZM203.286 616.554C205.286 651.354 205.152 697.487 202.752 723.887C201.152 742.954 194.752 794.154 193.686 797.754C193.152 799.487 182.752 784.82 174.219 770.154C166.086 756.287 165.819 752.554 170.219 726.554C174.219 702.687 179.686 685.487 189.419 665.754C194.219 656.154 198.086 647.087 198.086 645.62C198.086 644.154 196.886 641.887 195.419 640.554C191.419 636.954 186.619 638.954 181.952 646.287C174.219 658.287 162.086 684.687 156.219 702.42L150.219 720.42L147.686 714.42C143.819 705.487 135.419 680.554 135.419 678.154C135.419 675.62 145.686 656.02 154.886 641.22C164.219 626.02 178.886 605.754 190.619 592.02L200.086 580.82L200.886 586.02C201.419 588.82 202.486 602.554 203.286 616.554ZM1032.09 603.487L1039.55 623.62L1038.09 638.82C1037.42 647.087 1036.35 667.62 1035.82 684.554C1035.42 703.887 1034.49 715.887 1033.55 717.087C1032.75 718.154 1023.69 726.02 1013.42 734.554C1003.15 743.22 991.419 753.754 987.286 758.02C971.419 774.82 954.352 801.354 944.619 824.154C940.352 834.154 939.952 834.554 930.219 840.687C907.286 855.087 882.752 875.754 866.086 894.82C860.619 901.087 855.952 906.154 855.686 906.02C855.552 905.754 857.819 898.554 860.752 890.02C867.286 870.954 874.486 855.487 890.086 826.554C904.486 799.754 915.952 774.02 923.286 751.887L928.886 735.22L937.819 730.42C970.619 712.554 997.419 684.154 1009.95 654.02C1017.15 636.554 1023.29 607.087 1023.42 589.354C1023.42 585.354 1023.69 582.42 1023.95 582.687C1024.22 582.954 1027.95 592.287 1032.09 603.487ZM397.286 642.154C404.219 654.554 411.419 667.887 413.419 671.887L417.019 679.22L408.086 697.487L399.152 715.887L394.752 703.22C392.352 696.287 388.752 687.22 386.619 682.954C383.152 676.154 382.219 675.22 378.352 674.82C373.152 674.287 368.752 677.487 368.752 681.754C368.752 683.354 371.152 690.82 374.086 698.554C377.152 706.287 381.819 720.554 384.752 730.42C389.819 747.62 390.086 748.954 390.086 767.354C390.086 786.154 392.352 808.82 395.952 826.154C397.819 835.087 397.819 835.087 393.952 842.954C384.486 861.62 377.686 888.287 375.952 913.887L375.019 926.554L368.219 922.554C364.486 920.287 353.819 914.42 344.619 909.487L327.686 900.554L326.886 893.887C324.086 869.087 323.152 847.087 323.819 822.554C325.552 766.154 333.686 730.82 358.086 673.887C363.819 660.554 383.552 619.887 384.352 619.887C384.486 619.887 390.352 629.887 397.286 642.154ZM682.486 642.154C688.619 650.82 697.419 663.62 702.086 670.554L710.486 683.087L709.019 705.22C707.286 730.42 703.286 755.22 698.619 771.754C694.886 784.287 687.686 802.554 686.352 802.554C685.819 802.554 683.952 798.554 682.219 793.487C676.486 776.954 667.286 754.154 655.286 727.087C648.752 712.42 643.419 699.62 643.419 698.82C643.419 698.02 645.819 693.62 648.619 689.22C657.286 675.754 665.952 651.887 669.419 631.487C669.819 628.82 670.486 626.554 670.752 626.554C671.019 626.554 676.219 633.62 682.486 642.154ZM1236.62 682.02C1240.22 703.887 1240.22 718.42 1236.89 729.22C1234.49 736.82 1229.15 746.554 1227.29 746.554C1226.89 746.554 1225.29 740.42 1223.69 732.82C1222.09 725.354 1218.35 710.287 1215.42 699.354C1212.35 688.42 1210.09 678.82 1210.35 677.754C1210.62 676.82 1215.55 672.42 1221.42 668.02C1230.62 661.22 1232.22 660.42 1233.02 662.42C1233.42 663.754 1235.15 672.554 1236.62 682.02ZM1063.29 686.554C1063.42 687.754 1061.02 691.087 1058.09 693.887L1052.75 699.087V687.887C1052.75 681.62 1053.15 673.354 1053.69 669.354L1054.49 662.02L1058.89 673.354C1061.29 679.487 1063.29 685.487 1063.29 686.554ZM1626.75 718.954L1623.69 762.554L1614.62 772.287C1591.55 796.554 1576.22 818.82 1543.82 875.754C1507.55 939.22 1491.15 961.887 1464.89 984.687C1452.75 995.22 1442.75 1000.15 1399.55 1017.22C1382.75 1023.89 1331.02 1042.55 1329.42 1042.55C1329.02 1042.55 1331.02 1039.09 1333.69 1034.95C1343.55 1019.49 1350.09 1002.82 1354.62 981.354L1357.55 967.487L1372.22 963.62C1433.55 947.754 1486.62 921.354 1520.49 890.02C1529.15 881.887 1530.62 878.02 1526.62 874.02C1523.02 870.287 1519.02 871.754 1508.09 880.554C1470.35 911.487 1428.49 931.754 1377.69 943.887C1367.69 946.287 1359.15 948.02 1358.89 947.754C1358.62 947.487 1358.09 939.754 1357.55 930.554L1356.75 913.887L1377.69 903.887C1473.82 858.02 1539.42 797.62 1579.69 717.754C1588.89 699.62 1589.42 698.82 1595.95 695.487C1599.69 693.487 1608.75 688.02 1616.09 683.354C1623.42 678.82 1629.42 675.087 1629.55 675.087C1629.69 675.22 1628.35 694.82 1626.75 718.954ZM1190.62 719.887C1194.49 742.02 1199.02 776.287 1199.69 789.62L1200.09 798.554L1176.09 809.62C1143.29 824.82 1120.49 838.02 1103.55 851.754L1097.69 856.554L1098.62 852.554C1102.49 837.887 1104.89 819.087 1105.69 799.62L1106.49 777.487L1114.22 770.687C1118.49 766.82 1131.29 753.354 1142.75 740.554C1166.35 714.154 1184.89 696.42 1186.22 698.954C1186.75 699.754 1188.62 709.22 1190.62 719.887ZM128.752 715.487C131.152 722.687 135.419 734.42 138.352 741.62L143.686 754.82L142.752 771.62C141.419 798.554 145.419 829.887 153.552 856.287C155.419 862.287 161.419 878.42 166.886 892.154L176.886 917.087L175.419 931.487C174.752 939.354 173.686 958.02 173.152 972.82C172.752 987.754 172.219 999.887 172.086 999.887C171.819 999.887 166.086 996.554 159.286 992.554L146.752 985.22L144.486 972.42C141.152 953.487 136.219 937.487 126.752 915.22C102.486 857.887 97.5522 811.22 109.686 751.887C112.486 737.62 122.886 702.554 124.086 702.554C124.352 702.554 126.486 708.42 128.752 715.487ZM440.486 728.154C444.886 738.687 450.086 751.354 451.952 756.42L455.419 765.62L449.819 773.087C446.752 777.22 438.219 786.687 430.886 794.287C415.419 810.287 416.486 810.687 414.219 788.154C412.619 773.487 414.219 756.954 418.219 743.22C421.686 731.354 430.352 709.22 431.552 709.22C431.952 709.22 436.086 717.754 440.486 728.154ZM739.019 735.22C742.086 741.754 746.486 752.954 748.886 759.887L753.286 772.687L742.619 785.22C726.886 804.02 715.819 822.82 706.752 846.287C704.486 852.02 702.619 855.354 702.086 854.287C701.552 853.354 699.819 847.62 698.086 841.62L695.152 830.687L699.819 819.62C711.552 792.554 720.086 762.42 724.086 734.554C727.419 710.82 727.019 711.754 730.486 718.02C732.086 720.82 735.952 728.554 739.019 735.22ZM1075.95 727.487C1077.69 735.487 1079.69 745.487 1080.09 749.887C1080.49 754.287 1081.15 760.02 1081.55 762.687C1082.22 767.487 1082.09 767.62 1071.82 774.154C1060.49 781.487 1050.09 787.087 1049.29 786.287C1049.15 786.02 1049.42 782.02 1050.09 777.487C1050.75 772.82 1051.69 760.554 1052.09 750.154L1053.02 731.22L1061.82 722.154C1066.75 717.22 1071.15 713.22 1071.55 713.22C1072.09 713.22 1074.09 719.62 1075.95 727.487ZM1495.29 747.487C1499.02 764.02 1500.49 778.42 1499.69 788.287L1499.02 796.02L1486.89 806.82C1471.55 820.42 1458.62 830.287 1440.35 842.287C1424.89 852.554 1400.49 866.554 1398.35 866.554C1395.29 866.554 1394.49 820.287 1397.42 812.82C1397.95 811.487 1404.62 806.154 1412.35 800.954C1439.95 782.154 1478.35 750.287 1487.02 739.087C1488.89 736.554 1490.89 734.554 1491.42 734.554C1491.95 734.554 1493.69 740.42 1495.29 747.487ZM1684.75 746.154C1679.55 761.887 1669.95 785.354 1663.15 799.22C1655.95 813.487 1640.62 840.154 1639.82 839.487C1639.55 839.22 1640.49 834.554 1641.95 829.087C1645.42 815.22 1648.35 796.687 1650.09 777.22C1650.89 768.02 1652.35 759.754 1653.15 758.82C1655.29 756.154 1686.35 735.754 1687.15 736.42C1687.42 736.82 1686.35 741.087 1684.75 746.154ZM815.286 743.487C818.486 752.82 841.686 799.087 850.352 813.487L859.019 827.754L853.819 838.82C829.419 890.02 818.086 938.687 819.819 983.754L820.619 1003.09L797.686 1025.35C785.019 1037.62 768.486 1054.82 760.752 1063.62C753.152 1072.55 746.619 1079.62 746.486 1079.35C746.219 1079.22 744.886 1072.29 743.419 1064.02L740.619 1048.95L747.152 1040.82C762.752 1020.95 773.152 1002.15 781.152 979.087C798.486 929.487 799.952 851.487 784.752 789.354C782.486 780.42 780.752 772.42 780.752 771.754C780.752 770.42 811.286 738.554 812.619 738.554C813.152 738.554 814.352 740.82 815.286 743.487ZM1030.89 770.02C1029.82 777.22 1028.22 786.287 1027.42 790.02L1025.95 796.954L999.686 807.354C985.286 813.22 973.019 818.154 972.219 818.42C970.619 819.087 980.486 800.82 987.152 790.82C994.352 779.887 1005.02 769.087 1019.42 758.154L1032.09 748.42L1032.49 752.554C1032.75 754.82 1031.95 762.687 1030.89 770.02ZM1288.09 780.42C1284.09 806.954 1274.75 832.154 1262.49 848.82C1257.82 855.354 1256.62 856.02 1245.55 859.887C1239.02 862.02 1233.55 863.754 1233.55 863.487C1233.42 863.354 1233.55 849.62 1233.82 833.087L1234.35 802.82L1237.82 801.22C1243.82 798.687 1270.49 780.554 1280.09 772.554C1285.02 768.554 1289.42 765.354 1289.69 765.754C1289.95 766.02 1289.29 772.687 1288.09 780.42ZM1617.55 808.954C1607.02 866.154 1585.82 907.754 1554.22 932.687C1542.89 941.754 1521.55 956.82 1513.02 961.754C1512.09 962.287 1517.29 954.954 1524.35 945.487C1540.62 923.887 1553.02 903.087 1575.15 860.287C1584.75 841.887 1595.82 821.754 1599.95 815.62C1608.89 802.154 1619.42 788.687 1620.35 789.62C1620.62 790.02 1619.42 798.687 1617.55 808.954ZM464.486 804.554C468.752 832.42 467.552 852.954 459.952 890.42C457.286 903.22 454.752 914.954 454.086 916.554C453.419 918.154 445.019 927.487 435.152 937.354L417.286 955.354L408.752 948.82C402.619 944.287 399.686 941.087 398.886 938.154C398.352 935.754 398.086 924.82 398.486 913.887C399.286 889.754 402.886 874.154 411.952 855.087C419.019 840.287 423.952 833.087 438.752 816.554C444.619 809.887 452.086 801.354 455.419 797.487C462.219 789.354 462.219 789.354 464.486 804.554ZM763.152 812.82C768.486 842.02 769.419 853.087 769.419 890.554C769.419 930.02 768.086 941.22 761.152 965.22C755.819 983.887 738.086 1018.02 735.419 1014.95C734.886 1014.42 733.419 1007.22 732.219 999.22C729.152 980.154 720.619 934.82 715.686 911.22L711.686 892.554L716.086 877.887C723.152 854.687 731.286 836.82 743.152 818.554C749.952 808.154 758.219 797.22 759.286 797.22C759.819 797.22 761.552 804.287 763.152 812.82ZM1080.75 798.554C1080.75 804.287 1075.82 832.954 1072.62 846.42C1062.22 888.954 1041.69 931.22 1015.55 963.887C1005.42 976.554 983.152 998.687 969.419 1009.75C957.152 1019.62 941.686 1030.55 939.952 1030.55C938.886 1030.55 940.352 961.22 941.552 951.22C942.352 944.82 942.886 944.154 953.686 935.22C970.486 921.22 1001.55 888.82 1011.42 874.82C1023.29 858.154 1031.82 842.954 1037.02 829.62L1041.42 818.42L1054.89 811.354C1062.35 807.354 1070.75 802.687 1073.55 800.82C1079.29 797.087 1080.75 796.554 1080.75 798.554ZM182.886 821.487L188.619 829.087L185.819 848.154C184.352 858.687 182.619 867.754 182.086 868.287C180.086 870.42 168.752 817.354 168.752 806.02C168.752 802.02 168.752 802.02 173.019 808.02C175.286 811.22 179.819 817.354 182.886 821.487ZM1201.95 834.82C1201.82 842.42 1201.42 854.554 1200.89 861.887C1200.22 873.887 1199.82 875.22 1197.42 875.62C1195.55 875.887 1193.15 873.754 1189.02 868.154C1180.22 856.02 1177.42 853.754 1173.42 855.62C1168.22 858.02 1169.15 862.82 1176.35 872.154C1182.22 879.887 1182.35 880.42 1180.09 882.02C1178.75 883.087 1177.02 883.887 1176.49 883.887C1173.02 883.887 1110.22 909.754 1084.22 921.887C1077.02 925.22 1070.75 927.754 1070.49 927.354C1070.22 927.087 1071.69 923.62 1073.82 919.754C1075.95 915.754 1080.35 906.287 1083.55 898.687C1089.29 885.22 1089.69 884.554 1098.75 877.754C1114.62 865.887 1129.42 857.22 1165.42 838.954C1184.49 829.22 1200.49 821.354 1201.15 821.22C1201.69 821.22 1201.95 827.354 1201.95 834.82ZM1372.09 846.954C1372.09 857.354 1372.49 868.954 1373.02 872.687L1373.95 879.62L1367.69 882.287C1364.22 883.754 1359.29 885.887 1356.62 887.087L1351.82 889.087L1346.89 870.687C1344.22 860.554 1342.09 850.287 1342.09 847.754C1342.22 843.354 1342.75 842.954 1355.82 835.62C1363.29 831.487 1370.09 828.02 1370.75 828.02C1371.55 827.887 1372.09 835.087 1372.09 846.954ZM1010.09 838.154C1003.02 850.554 995.686 860.954 985.686 872.154C975.152 884.287 948.486 907.62 947.819 905.62C947.152 903.887 953.019 874.954 956.352 862.554C958.619 854.42 959.152 853.754 964.752 850.954C972.486 847.087 1011.69 830.554 1013.15 830.554C1013.82 830.554 1012.35 834.02 1010.09 838.154ZM1326.09 857.087C1326.09 859.22 1328.09 868.82 1330.62 878.42L1335.15 896.02L1330.35 898.154C1288.89 916.287 1260.09 934.954 1244.35 953.754C1241.55 957.22 1238.75 959.887 1238.22 959.887C1237.69 959.887 1233.95 952.02 1230.22 942.42L1223.29 924.954L1227.02 906.287L1230.75 887.62L1256.75 878.554C1280.35 870.42 1302.09 862.02 1318.09 854.82C1324.89 851.62 1326.09 852.02 1326.09 857.087ZM241.419 879.354C254.086 888.954 273.552 901.487 293.419 912.954L302.886 918.287L305.286 933.487C310.752 968.554 320.486 1010.95 331.552 1047.49C335.152 1059.49 338.086 1069.49 338.086 1069.75C338.086 1070.02 328.352 1060.42 316.486 1048.42L294.886 1026.55L291.819 1012.82C285.686 985.754 276.352 958.154 260.752 921.22C252.752 902.287 251.152 899.887 246.086 899.887C237.686 899.887 237.552 904.687 245.286 922.02C256.352 947.22 275.552 1002.82 273.819 1004.69C273.152 1005.22 251.819 982.42 239.286 967.887C229.419 956.42 216.886 939.62 210.352 929.354C205.286 921.354 205.152 920.954 206.352 913.487C209.419 892.554 214.352 861.62 214.886 860.154C215.286 858.82 217.419 860.02 221.819 863.754C225.286 866.82 234.086 873.754 241.419 879.354ZM685.419 878.954L690.352 897.22L687.552 908.954C684.219 923.754 681.286 940.02 679.419 955.354L677.952 967.354L650.352 995.354C635.152 1010.69 618.886 1027.89 614.219 1033.62C609.552 1039.22 605.552 1043.75 605.419 1043.62C604.752 1042.55 607.552 1012.82 609.419 1002.15C617.286 956.02 632.752 921.354 664.619 878.554C671.419 869.487 677.419 861.22 677.686 860.154C679.019 856.954 680.352 860.287 685.419 878.954ZM924.219 885.354C922.352 892.954 919.686 906.42 918.219 915.087C916.752 923.887 915.019 931.487 914.486 932.02C913.952 932.554 903.819 939.62 892.086 947.887C880.352 956.154 865.819 966.687 859.686 971.354C853.686 976.02 848.486 979.887 848.086 979.887C847.686 979.887 847.419 973.487 847.419 965.754V951.754L856.752 938.154C873.552 913.487 893.019 893.62 915.952 877.887C921.819 873.887 926.752 870.82 927.019 871.087C927.286 871.22 925.952 877.754 924.219 885.354ZM1194.62 913.487C1191.95 927.62 1189.42 937.754 1185.15 951.62C1182.49 960.287 1181.02 962.687 1178.89 963.22C1177.29 963.487 1171.95 964.42 1166.75 965.354C1145.55 968.954 1119.29 980.154 1102.75 992.554C1098.35 995.887 1089.42 1003.22 1082.75 1008.95C1062.49 1026.69 1051.42 1034.55 1037.42 1041.22C1015.42 1051.89 993.552 1056.55 958.486 1058.15C939.819 1058.95 939.419 1058.95 939.419 1056.15C939.419 1054.15 941.819 1052.15 948.486 1048.42C962.619 1040.55 983.552 1026.15 996.352 1015.49C1011.15 1003.09 1035.42 978.02 1044.09 966.154C1049.95 958.02 1052.09 956.287 1062.09 951.22C1089.82 937.22 1130.22 920.687 1170.09 907.087C1189.69 900.42 1194.89 899.087 1195.69 900.42C1196.35 901.487 1195.82 907.354 1194.62 913.487ZM1339.42 936.554C1339.42 946.287 1338.89 951.887 1338.09 951.887C1337.29 951.887 1329.02 952.82 1319.69 953.887C1298.89 956.42 1275.42 958.154 1275.42 957.22C1275.42 956.82 1280.35 953.087 1286.49 948.82C1295.95 942.02 1335.15 921.22 1338.35 921.22C1338.89 921.22 1339.42 928.154 1339.42 936.554ZM367.952 953.754C374.219 957.487 377.552 960.287 378.219 962.554C378.619 964.42 380.752 972.954 382.752 981.62L386.486 997.354L383.552 1002.29C378.752 1010.55 367.952 1032.15 365.419 1038.95C364.086 1042.42 362.619 1045.62 362.086 1045.89C360.219 1047.09 341.419 978.02 336.086 950.554C334.886 944.287 333.552 938.02 333.152 936.687C332.619 934.687 335.152 935.62 345.552 941.22C352.886 945.087 362.886 950.82 367.952 953.754ZM1221.15 953.354L1223.15 959.62L1218.35 960.42C1215.69 960.82 1213.29 960.954 1213.02 960.687C1212.75 960.287 1213.55 956.82 1214.89 952.687C1216.22 948.554 1217.69 945.62 1218.22 946.154C1218.62 946.82 1219.95 950.02 1221.15 953.354ZM710.619 999.087L717.952 1038.95L710.619 1047.49C706.219 1052.69 703.152 1055.35 702.752 1054.29C699.952 1046.29 698.219 983.754 700.352 961.887C701.419 949.62 701.686 950.42 710.619 999.087ZM447.686 969.487L447.152 981.087L441.952 976.954C439.019 974.687 436.752 972.287 436.752 971.62C436.752 970.287 447.686 956.954 448.086 957.487C448.219 957.754 448.086 963.087 447.686 969.487ZM220.619 988.954C231.152 1002.55 251.552 1023.62 271.419 1041.49L283.952 1052.82L284.486 1070.42C285.019 1085.89 283.152 1107.75 281.152 1111.09C280.752 1111.75 278.619 1108.55 276.619 1104.02C265.286 1079.09 237.152 1046.69 207.152 1024.02L199.419 1018.29V998.687C199.419 988.02 199.819 975.22 200.219 970.287L201.152 961.354L206.086 968.954C208.752 973.087 215.419 982.154 220.619 988.954ZM114.486 987.087C120.886 990.554 126.086 993.62 126.086 993.887C126.086 994.154 127.286 1000.95 128.886 1008.82C139.686 1065.62 156.752 1104.55 184.752 1137.09C192.752 1146.29 194.886 1149.89 198.086 1158.95C211.019 1197.22 233.952 1239.49 260.352 1273.62L268.352 1283.89L269.286 1300.29C272.752 1362.95 285.152 1420.42 303.286 1457.22L308.886 1468.55L294.086 1453.22C248.086 1405.49 233.819 1386.15 212.886 1343.22C201.552 1320.15 193.286 1299.62 177.419 1255.89C153.286 1189.22 146.619 1174.69 126.752 1145.22C96.0856 1099.62 83.0189 1057.49 76.7522 984.554C76.0856 975.754 75.4189 967.887 75.4189 966.954C75.4189 966.154 81.5522 968.82 89.1522 973.087C96.6189 977.354 107.952 983.62 114.486 987.087ZM911.686 1010.82L912.086 1046.42L898.752 1052.82C887.819 1057.89 883.819 1059.09 875.952 1059.62L866.619 1060.15L862.352 1047.62C856.086 1029.09 852.619 1015.49 853.952 1014.15C854.486 1013.62 867.552 1003.35 882.886 991.354C905.952 973.487 910.752 970.154 911.019 972.42C911.152 974.02 911.552 991.22 911.686 1010.82ZM1337.29 977.487C1334.35 996.287 1326.49 1018.15 1317.29 1032.55C1306.35 1049.89 1306.89 1049.49 1281.02 1057.22C1268.22 1060.95 1257.69 1063.89 1257.55 1063.62C1257.42 1063.35 1255.95 1052.42 1254.35 1039.22C1252.75 1026.02 1249.95 1009.09 1248.35 1001.62C1244.09 983.087 1243.82 983.354 1267.42 981.354C1286.09 979.754 1331.55 973.62 1332.62 972.554C1332.89 972.154 1334.35 971.887 1335.69 971.887C1337.82 971.887 1337.95 972.687 1337.29 977.487ZM544.086 1004.82C551.019 1018.69 562.752 1039.49 569.952 1051.22C581.019 1068.95 582.886 1072.95 581.686 1074.82C570.352 1091.09 552.886 1118.02 546.752 1128.55C542.619 1135.89 538.752 1142.42 538.219 1142.95C537.152 1144.02 524.886 1125.22 514.752 1106.69C505.819 1090.55 497.552 1071.62 491.419 1053.22L485.952 1037.09L495.152 1024.42C502.752 1013.89 530.219 979.887 531.019 979.887C531.152 979.887 537.019 991.087 544.086 1004.82ZM1219.69 988.154C1214.09 997.22 1204.75 1020.29 1194.09 1050.95C1187.55 1069.75 1182.22 1083.09 1181.02 1083.62C1177.55 1084.95 1137.42 1094.15 1136.89 1093.75C1136.62 1093.49 1141.29 1086.82 1147.15 1078.82C1168.62 1049.75 1186.09 1021.09 1198.22 994.82L1203.29 983.887H1212.75H1222.35L1219.69 988.154ZM676.219 1010.95C676.352 1036.02 678.352 1057.35 682.086 1075.35L684.486 1086.82L681.286 1094.82C676.219 1108.02 672.886 1123.62 671.019 1142.82L669.419 1161.22L644.752 1129.75C609.419 1084.69 605.819 1079.62 605.152 1072.69C604.486 1067.22 604.886 1066.42 613.552 1055.75C629.819 1035.49 673.286 987.887 675.419 987.887C675.819 987.887 676.086 998.287 676.219 1010.95ZM1170.09 990.154C1169.95 992.287 1157.55 1014.42 1150.62 1024.55C1146.62 1030.42 1137.55 1043.09 1130.35 1052.82C1123.29 1062.55 1112.62 1077.89 1106.89 1087.09L1096.35 1103.75L1067.55 1110.69C1030.62 1119.49 989.019 1130.29 966.086 1137.09C956.219 1140.02 947.952 1142.15 947.686 1142.02C946.486 1140.69 941.019 1087.89 942.219 1087.89C994.619 1082.55 1019.95 1076.15 1051.95 1060.55C1070.49 1051.49 1083.42 1042.95 1109.69 1022.15C1120.89 1013.22 1134.49 1003.49 1139.69 1000.69C1154.22 992.687 1170.09 987.22 1170.09 990.154ZM440.219 1008.15C451.419 1019.62 452.486 1021.09 453.819 1027.89C455.152 1035.09 455.019 1035.35 449.952 1044.15C447.019 1049.22 444.352 1053.22 444.086 1053.22C443.152 1053.22 427.552 1026.82 422.352 1016.55C414.886 1001.35 414.619 1000.42 418.219 995.22L421.286 990.82L424.752 993.22C426.619 994.554 433.552 1001.35 440.219 1008.15ZM1613.42 1002.02C1612.35 1004.69 1611.42 1007.22 1611.42 1007.62C1611.42 1008.42 1591.42 1006.69 1586.49 1005.35L1582.75 1004.29L1588.09 1002.55C1595.15 1000.15 1607.15 997.487 1611.82 997.354L1615.42 997.22L1613.42 1002.02ZM163.152 1013.75L174.086 1020.55V1027.22C174.086 1035.75 177.419 1066.82 180.086 1083.09C182.752 1099.62 182.619 1100.15 178.619 1093.89C163.419 1069.75 155.819 1047.62 149.419 1008.82C148.752 1004.55 147.686 1004.15 163.152 1013.75ZM1236.49 1017.49C1238.89 1032.69 1240.62 1049.09 1240.89 1059.09L1241.15 1068.42L1224.62 1072.82C1215.55 1075.22 1207.69 1077.09 1207.15 1076.82C1206.49 1076.69 1209.42 1066.82 1213.42 1054.95C1221.02 1032.42 1232.35 1006.15 1234.09 1007.22C1234.62 1007.49 1235.69 1012.15 1236.49 1017.49ZM1716.75 1024.55C1708.62 1047.49 1697.82 1069.22 1688.09 1082.42C1681.69 1091.22 1661.82 1110.15 1649.95 1118.95C1635.42 1129.62 1609.55 1145.35 1609.02 1143.75C1608.22 1141.62 1614.09 1123.89 1618.35 1115.22C1623.69 1104.69 1629.15 1096.95 1637.69 1087.62C1645.69 1078.82 1646.75 1074.55 1641.42 1071.09C1638.35 1069.09 1637.82 1069.09 1633.82 1071.49C1627.15 1075.35 1613.42 1092.55 1606.89 1105.22C1600.62 1117.22 1595.42 1132.55 1592.75 1146.29L1591.02 1154.69L1580.89 1159.35C1555.69 1171.22 1511.82 1188.82 1510.62 1187.62C1509.95 1186.82 1516.75 1161.09 1521.55 1146.15L1526.35 1131.89L1544.62 1122.55C1565.55 1112.02 1577.02 1103.75 1587.95 1091.62C1598.22 1080.42 1610.89 1061.09 1619.42 1043.89L1626.35 1029.89H1651.29C1674.49 1029.75 1676.89 1029.49 1688.09 1026.02C1694.75 1024.02 1704.62 1020.15 1710.09 1017.49C1715.55 1014.82 1720.22 1012.55 1720.49 1012.69C1720.62 1012.82 1719.02 1018.02 1716.75 1024.55ZM1602.49 1026.29C1603.42 1027.75 1593.55 1046.95 1586.49 1057.49C1579.02 1068.55 1561.02 1085.75 1551.42 1091.09C1544.49 1094.82 1544.49 1094.82 1546.09 1091.75C1547.02 1090.02 1550.75 1084.15 1554.49 1078.82C1560.35 1070.29 1561.02 1068.55 1559.95 1065.49C1558.09 1060.15 1551.55 1059.89 1546.75 1064.82C1542.22 1069.75 1528.09 1090.55 1523.95 1098.69C1521.29 1104.02 1519.02 1106.02 1511.15 1110.69C1478.35 1129.75 1456.62 1154.15 1435.82 1195.35L1427.02 1212.69L1410.22 1216.42C1387.82 1221.22 1361.02 1225.89 1360.09 1224.95C1358.75 1223.62 1367.55 1200.69 1375.02 1186.29C1379.02 1178.42 1385.95 1166.69 1390.49 1160.29C1399.69 1147.35 1424.89 1121.22 1437.69 1111.49C1456.75 1096.95 1482.22 1083.09 1508.09 1073.22C1521.42 1068.15 1524.22 1066.55 1524.49 1064.02C1525.15 1060.15 1522.49 1057.22 1518.35 1057.22C1512.09 1057.22 1477.82 1069.62 1460.89 1078.02C1423.69 1096.42 1392.75 1122.42 1369.69 1154.55C1359.42 1169.09 1341.55 1203.75 1336.75 1218.82C1332.89 1230.69 1335.02 1229.62 1309.42 1231.75C1279.42 1234.29 1266.09 1234.82 1266.09 1233.75C1266.22 1231.62 1287.42 1206.02 1305.42 1186.42C1353.15 1134.42 1415.15 1085.49 1469.42 1057.09C1499.02 1041.49 1530.89 1030.42 1558.09 1026.15C1564.35 1025.09 1601.95 1025.22 1602.49 1026.29ZM404.086 1038.29C406.886 1043.89 414.219 1055.89 420.219 1064.82L431.152 1081.09L426.619 1092.29C420.352 1108.29 413.152 1132.42 409.552 1150.42L406.352 1165.89L403.419 1159.22C399.286 1149.75 381.819 1105.22 377.419 1092.95L373.686 1082.55L377.286 1072.29C381.286 1061.09 396.752 1027.89 397.952 1027.89C398.352 1027.89 401.152 1032.55 404.086 1038.29ZM831.552 1050.02C833.686 1056.55 835.419 1062.02 835.419 1062.15C835.419 1062.42 833.419 1062.55 830.886 1062.55C828.352 1062.55 819.286 1063.75 810.752 1065.22C802.219 1066.69 794.752 1067.89 794.352 1067.89C793.819 1067.75 800.619 1060.95 809.419 1052.55C818.219 1044.15 825.952 1037.49 826.619 1037.62C827.286 1037.89 829.552 1043.35 831.552 1050.02ZM226.752 1069.89C248.352 1097.35 261.419 1127.09 266.886 1161.22C269.019 1174.29 269.552 1222.02 267.686 1232.42L266.752 1237.49L259.152 1224.42C232.086 1177.09 213.019 1120.02 204.752 1061.89C203.952 1056.02 203.019 1049.35 202.619 1047.22C201.819 1043.35 202.219 1043.62 210.086 1051.22C214.619 1055.62 222.086 1064.02 226.752 1069.89ZM343.819 1124.95C341.952 1146.82 342.619 1190.69 345.152 1215.22C346.486 1227.62 347.419 1242.95 347.152 1249.22L346.752 1260.55L341.686 1247.35C338.886 1240.02 335.019 1227.49 333.152 1219.35C329.286 1201.89 328.886 1200.95 324.352 1199.35C319.686 1197.62 315.419 1201.35 315.419 1207.09C315.419 1218.02 326.486 1252.29 337.152 1274.95L343.952 1289.49L340.086 1300.82C337.952 1307.09 335.286 1313.35 334.086 1314.82C332.086 1317.35 331.552 1316.95 320.086 1304.95C313.419 1298.15 305.819 1289.75 303.019 1286.42L298.086 1280.29V1248.42C298.086 1209.89 296.219 1179.49 292.752 1157.35C291.286 1148.29 289.819 1140.55 289.552 1140.02C289.152 1139.49 290.086 1134.95 291.552 1129.89C295.552 1115.49 298.086 1099.35 299.019 1082.02L299.819 1066.02L322.486 1089.09L345.019 1112.15L343.819 1124.95ZM471.152 1081.09L475.286 1090.95L471.952 1087.75C464.886 1081.22 462.886 1077.35 464.619 1073.62C465.552 1071.75 466.352 1070.42 466.619 1070.69C466.886 1070.95 468.886 1075.62 471.152 1081.09ZM725.952 1082.55C726.886 1087.35 727.819 1092.15 728.219 1093.35C728.619 1094.82 726.886 1096.69 723.419 1099.09C720.352 1101.09 713.819 1106.82 708.619 1111.75C703.552 1116.82 699.419 1120.42 699.419 1119.89C699.419 1117.49 705.286 1100.15 707.686 1095.22C712.752 1085.22 722.219 1071.49 723.286 1072.69C723.952 1073.35 725.152 1077.75 725.952 1082.55ZM593.419 1117.89C595.952 1152.42 595.552 1202.42 592.486 1217.22L590.752 1225.75L584.886 1215.89C581.686 1210.42 571.952 1195.35 563.419 1182.55C554.886 1169.75 547.552 1158.55 547.019 1157.75C545.419 1154.95 588.752 1084.69 590.752 1086.82C591.019 1087.09 592.219 1101.09 593.419 1117.89ZM918.619 1096.15C919.019 1100.02 919.819 1114.02 920.219 1127.35L921.152 1151.49L916.752 1153.09C910.086 1155.35 909.286 1155.09 906.352 1148.15C904.886 1144.69 899.019 1132.42 893.552 1120.82C887.952 1109.22 882.486 1097.75 881.552 1095.22C879.686 1090.82 879.686 1090.69 883.152 1090.15C885.152 1089.89 893.686 1089.49 902.219 1089.35L917.686 1089.22L918.619 1096.15ZM863.286 1128.55C872.352 1148.69 879.419 1165.75 879.152 1166.42C879.019 1167.09 870.352 1171.89 860.086 1176.95C837.019 1188.55 813.152 1204.29 797.419 1218.42C788.619 1226.29 785.152 1228.69 784.486 1227.35C779.419 1218.29 757.552 1140.95 754.752 1122.29L753.819 1116.42L763.019 1112.15C778.086 1105.35 785.952 1102.55 800.619 1098.95C813.419 1095.89 835.286 1092.29 843.552 1092.02C846.752 1091.89 847.952 1093.89 863.286 1128.55ZM1238.62 1109.49C1236.35 1121.22 1234.62 1126.69 1230.62 1134.69C1225.95 1144.02 1221.55 1148.55 1208.22 1157.62C1179.29 1177.35 1165.82 1197.75 1157.29 1235.22C1155.95 1241.09 1154.89 1246.02 1154.75 1246.29C1154.62 1246.42 1147.29 1247.75 1138.62 1249.22C1118.35 1252.55 1087.15 1258.95 1067.15 1264.02C1058.62 1266.15 1051.29 1267.89 1050.89 1267.89C1050.49 1267.89 1051.82 1263.22 1053.95 1257.49C1061.55 1237.22 1062.09 1236.15 1065.82 1235.22C1072.62 1233.62 1093.95 1223.89 1104.35 1217.75C1134.35 1200.15 1160.22 1174.69 1176.89 1146.69C1183.55 1135.62 1192.75 1116.82 1192.75 1114.55C1192.75 1113.89 1197.15 1112.02 1202.49 1110.55C1207.69 1108.95 1217.82 1106.02 1224.75 1103.89C1231.69 1101.75 1238.09 1100.02 1238.89 1100.02C1240.09 1099.89 1239.95 1102.55 1238.62 1109.49ZM463.419 1115.09C469.819 1121.22 481.952 1131.49 490.486 1137.75C505.552 1148.95 505.952 1149.49 513.286 1162.55C517.419 1169.89 520.752 1176.42 520.752 1176.95C520.752 1177.49 517.819 1184.55 514.219 1192.55C510.619 1200.69 504.486 1215.75 500.619 1226.15C496.752 1236.69 493.152 1245.22 492.619 1245.22C491.286 1245.22 484.086 1228.55 480.352 1216.55C475.686 1201.75 473.019 1187.62 470.886 1166.69C469.686 1154.95 468.352 1148.42 467.152 1147.75C464.619 1146.15 460.219 1146.29 458.352 1148.15C455.152 1151.35 457.152 1180.82 462.352 1205.89C465.819 1222.82 471.286 1238.29 479.552 1255.22L486.086 1268.55L480.352 1290.95L474.752 1313.22L468.886 1301.62C446.752 1257.22 426.086 1211.35 426.086 1206.82C426.086 1199.62 429.552 1178.02 433.552 1160.15C437.019 1144.55 449.686 1103.89 451.019 1103.89C451.419 1103.89 457.019 1108.95 463.419 1115.09ZM635.286 1147.09C649.286 1166.82 660.752 1183.49 660.752 1184.29C660.752 1185.09 657.152 1194.82 652.886 1205.89C644.219 1227.89 635.419 1255.35 628.619 1281.22C626.219 1290.42 623.819 1298.42 623.286 1298.95C622.752 1299.62 620.752 1295.09 618.752 1288.95C616.752 1282.95 612.752 1272.55 609.952 1266.02L604.886 1254.15L608.752 1240.95C613.286 1225.62 616.752 1204.02 616.752 1190.82C616.752 1185.62 615.286 1170.69 613.552 1157.62C611.819 1144.55 609.952 1130.02 609.419 1125.22C609.019 1120.42 608.219 1114.69 607.819 1112.55C607.419 1109.89 607.552 1108.95 608.486 1109.89C609.286 1110.55 621.286 1127.35 635.286 1147.09ZM1164.22 1123.22C1163.82 1124.29 1160.22 1130.29 1156.22 1136.29C1138.62 1162.95 1112.49 1187.22 1083.02 1203.75C1078.75 1206.15 1075.02 1207.89 1074.62 1207.49C1074.22 1207.09 1075.55 1203.09 1077.42 1198.42C1082.09 1186.95 1104.35 1142.69 1107.15 1138.82C1108.89 1136.55 1115.15 1134.29 1136.09 1128.69C1167.15 1120.29 1165.29 1120.69 1164.22 1123.22ZM739.286 1145.22C744.219 1166.29 751.286 1191.22 760.352 1219.09C765.019 1233.62 768.486 1246.02 767.819 1246.55C767.286 1247.09 762.219 1248.55 756.752 1249.89C751.286 1251.22 742.619 1253.75 737.552 1255.49C732.486 1257.09 727.552 1258.55 726.752 1258.55C725.819 1258.55 723.552 1254.15 721.419 1248.82C716.352 1235.62 706.352 1215.62 698.352 1202.95L691.819 1192.29L695.419 1184.42C700.219 1173.75 711.686 1155.49 719.152 1146.55C726.619 1137.62 734.486 1130.42 735.552 1131.62C736.086 1132.15 737.819 1138.29 739.286 1145.22ZM399.152 1226.55C406.486 1243.75 424.219 1284.29 438.619 1316.55L464.752 1375.22L463.419 1388.42C462.752 1395.62 462.086 1404.95 462.086 1409.09C462.086 1413.22 461.552 1417.22 461.019 1418.15C460.486 1419.09 456.352 1413.49 450.352 1403.49C438.752 1384.02 425.952 1366.69 401.952 1337.89C392.086 1326.15 380.752 1312.29 376.752 1307.35L369.419 1298.15L369.152 1270.69C369.019 1255.62 367.686 1228.82 366.219 1211.22C364.619 1193.62 363.419 1170.55 363.419 1159.89L363.552 1140.55L374.619 1167.89C380.752 1182.95 391.686 1209.35 399.152 1226.55ZM1072.75 1145.89C1072.75 1146.29 1070.22 1151.49 1067.15 1157.62C1064.09 1163.62 1056.09 1180.55 1049.42 1195.22L1037.15 1221.89L1031.29 1223.62C1014.75 1228.42 961.952 1234.02 942.752 1232.95L934.752 1232.55L934.886 1226.55C935.019 1223.22 937.152 1214.55 939.819 1207.22C942.352 1199.89 945.152 1189.49 946.086 1184.15C947.019 1178.95 948.086 1174.55 948.486 1174.55C949.552 1174.55 1032.89 1154.95 1052.75 1150.02C1073.15 1144.95 1072.75 1144.95 1072.75 1145.89ZM1500.75 1158.29C1498.62 1165.49 1495.95 1176.55 1494.62 1182.82L1492.22 1194.29L1476.75 1199.09C1468.09 1201.75 1460.75 1203.89 1460.22 1203.89C1458.62 1203.89 1470.89 1181.75 1477.82 1171.89C1483.95 1163.22 1501.02 1145.22 1503.15 1145.22C1503.82 1145.22 1502.75 1151.09 1500.75 1158.29ZM1587.42 1189.75V1196.82L1577.55 1200.42C1552.75 1209.22 1506.22 1220.42 1503.82 1218.15C1501.95 1216.29 1505.82 1214.42 1526.22 1207.35C1547.69 1199.89 1573.42 1189.75 1581.82 1185.22C1584.49 1183.89 1586.89 1182.69 1587.15 1182.55C1587.29 1182.55 1587.42 1185.75 1587.42 1189.75ZM543.419 1215.22C550.086 1226.95 559.686 1244.69 564.752 1254.69L573.952 1272.82L567.286 1284.69C563.552 1291.22 558.352 1300.69 555.819 1305.89C553.286 1310.95 550.886 1315.49 550.619 1315.75C549.686 1316.82 512.752 1276.55 506.619 1267.62L503.152 1262.69L508.752 1244.95C513.686 1229.35 519.686 1213.35 526.752 1196.69C527.952 1193.75 529.419 1192.02 530.086 1192.69C530.752 1193.35 536.752 1203.49 543.419 1215.22ZM895.686 1209.49C898.486 1218.02 900.886 1226.95 901.019 1229.49L901.419 1233.89L874.619 1234.82C859.819 1235.22 841.019 1236.29 832.752 1237.22C824.486 1238.02 817.419 1238.42 817.152 1238.02C816.086 1236.95 837.952 1220.15 850.752 1212.29C864.486 1203.62 885.819 1193.22 888.619 1193.62C889.952 1193.75 892.486 1199.75 895.686 1209.49ZM1585.02 1224.29C1584.49 1233.49 1580.62 1260.29 1579.69 1262.02C1579.15 1262.82 1572.49 1268.55 1564.75 1274.55C1547.29 1288.42 1515.82 1319.22 1496.62 1341.35L1481.95 1358.29L1467.02 1363.49C1458.75 1366.42 1451.82 1368.69 1451.55 1368.42C1451.29 1368.15 1453.15 1365.49 1455.69 1362.29C1466.89 1348.15 1474.89 1332.02 1483.15 1306.55C1487.42 1293.22 1495.82 1258.95 1498.35 1244.69C1498.62 1242.69 1503.29 1241.09 1524.09 1235.89C1538.09 1232.42 1557.29 1226.95 1566.75 1223.75C1576.35 1220.42 1584.35 1218.02 1584.75 1218.29C1585.02 1218.42 1585.15 1221.22 1585.02 1224.29ZM694.352 1240.02C707.819 1267.09 707.552 1266.02 700.486 1268.82C697.286 1270.02 687.686 1274.55 679.152 1278.82C666.352 1285.09 663.419 1286.02 663.419 1284.15C663.419 1276.02 680.486 1218.29 682.619 1218.95C683.419 1219.22 688.752 1228.69 694.352 1240.02ZM1734.75 1221.49C1732.62 1229.35 1721.55 1249.49 1715.02 1257.35C1707.42 1266.42 1695.95 1276.29 1683.02 1284.42C1671.29 1291.89 1671.95 1292.42 1672.89 1276.95C1673.42 1269.35 1673.82 1257.09 1673.95 1249.62L1674.09 1236.02L1679.15 1234.55C1681.82 1233.89 1694.89 1230.02 1708.09 1226.02C1721.29 1222.02 1732.89 1218.82 1733.82 1218.69C1735.02 1218.55 1735.29 1219.49 1734.75 1221.49ZM1486.75 1221.09C1485.55 1222.29 1466.89 1226.69 1464.09 1226.42C1462.49 1226.29 1483.15 1220.29 1486.09 1220.02C1487.29 1219.89 1487.42 1220.29 1486.75 1221.09ZM1461.69 1227.35C1461.29 1227.75 1460.09 1227.89 1459.15 1227.49C1458.09 1227.09 1458.49 1226.69 1459.95 1226.69C1461.42 1226.55 1462.22 1226.95 1461.69 1227.35ZM1416.09 1238.42C1415.29 1238.95 1408.75 1241.49 1401.42 1244.02C1394.09 1246.42 1379.95 1252.55 1370.09 1257.35C1360.22 1262.29 1351.95 1266.15 1351.69 1265.89C1350.89 1265.22 1352.89 1251.09 1353.95 1249.35C1354.49 1248.55 1367.15 1245.75 1382.22 1243.22C1397.15 1240.55 1410.09 1238.29 1410.75 1238.02C1413.42 1236.95 1417.29 1237.22 1416.09 1238.42ZM1657.42 1256.15C1656.49 1272.69 1653.42 1301.09 1652.62 1301.75C1652.35 1302.02 1637.95 1309.09 1620.75 1317.49C1590.89 1332.02 1588.75 1332.95 1574.89 1335.09C1566.89 1336.42 1551.69 1339.49 1541.02 1342.02C1530.35 1344.55 1521.42 1346.42 1521.29 1346.15C1520.35 1345.35 1542.09 1318.42 1552.09 1308.02C1577.95 1280.95 1606.22 1262.15 1643.42 1246.95C1651.15 1243.89 1657.69 1241.35 1657.95 1241.22C1658.22 1241.22 1657.95 1248.02 1657.42 1256.15ZM1027.15 1246.42C1027.02 1246.95 1023.82 1254.69 1020.22 1263.49L1013.69 1279.49L995.819 1286.42C982.219 1291.75 952.352 1305.75 939.419 1312.82C939.019 1313.09 938.752 1299.89 938.752 1283.49V1253.62L965.152 1252.02C989.819 1250.55 1021.95 1247.09 1023.29 1245.75C1024.35 1244.69 1027.69 1245.22 1027.15 1246.42ZM1478.75 1261.89C1467.55 1311.75 1452.75 1343.49 1426.89 1373.75C1421.69 1379.75 1417.95 1382.69 1411.42 1385.62C1406.62 1387.75 1391.69 1394.95 1378.09 1401.49C1364.49 1408.15 1346.89 1416.42 1338.89 1420.15L1324.35 1426.69L1316.62 1423.75C1312.22 1422.15 1308.75 1420.55 1308.75 1420.02C1308.75 1419.49 1316.35 1414.69 1325.69 1409.22C1352.09 1393.89 1366.09 1381.62 1382.35 1359.89C1398.35 1338.69 1415.29 1308.02 1430.89 1272.55C1434.75 1263.75 1438.75 1256.15 1439.69 1255.49C1441.69 1254.42 1481.15 1245.35 1481.82 1245.89C1482.09 1246.15 1480.62 1253.35 1478.75 1261.89ZM1326.62 1254.82C1326.09 1256.55 1324.35 1266.02 1322.89 1276.02L1320.09 1294.15L1308.89 1310.02C1302.75 1318.69 1294.75 1329.75 1291.29 1334.55C1274.75 1357.35 1250.22 1374.15 1216.89 1385.75C1209.29 1388.42 1202.75 1390.55 1202.09 1390.55C1201.55 1390.55 1202.75 1385.62 1204.89 1379.49C1206.89 1373.49 1212.62 1355.35 1217.42 1339.35C1227.82 1304.82 1233.69 1288.69 1241.55 1272.82C1244.75 1266.42 1247.55 1261.22 1247.82 1261.09C1248.62 1260.82 1321.82 1252.15 1324.49 1252.02C1327.15 1251.89 1327.42 1252.29 1326.62 1254.82ZM886.619 1259.89C885.286 1262.02 879.152 1269.75 873.152 1276.82C841.152 1314.42 831.419 1328.42 817.952 1356.55C813.686 1365.35 808.352 1378.69 805.819 1386.15C803.419 1393.75 801.019 1399.89 800.619 1399.89C800.219 1399.89 801.019 1393.89 802.219 1386.69C808.086 1354.15 808.086 1306.02 802.219 1277.89C800.886 1271.22 799.952 1265.62 800.219 1265.35C802.219 1263.22 858.086 1256.69 880.486 1256.15L888.886 1255.89L886.619 1259.89ZM1215.95 1274.15C1205.15 1297.35 1199.15 1311.89 1182.89 1353.22C1173.42 1377.09 1164.89 1397.22 1163.82 1398.02C1162.09 1399.49 1131.82 1402.15 1130.75 1400.95C1130.35 1400.69 1132.75 1394.42 1135.95 1387.09C1148.22 1359.09 1158.89 1324.55 1165.95 1289.75L1169.55 1271.22L1194.22 1267.62C1207.69 1265.75 1219.15 1264.15 1219.69 1264.02C1220.22 1263.89 1218.49 1268.55 1215.95 1274.15ZM1401.29 1271.49C1400.09 1274.29 1394.22 1286.69 1388.09 1299.22C1366.09 1344.15 1346.89 1366.82 1302.62 1399.75L1286.75 1411.62L1277.15 1406.82C1271.82 1404.15 1267.42 1401.62 1267.42 1401.22C1267.42 1400.82 1269.42 1399.35 1271.69 1397.89C1277.82 1394.42 1298.49 1374.15 1305.69 1364.82C1308.89 1360.69 1316.09 1349.62 1321.55 1340.42C1337.42 1313.49 1350.62 1298.15 1369.42 1284.82C1376.62 1279.75 1400.75 1266.55 1402.89 1266.55C1403.15 1266.55 1402.35 1268.82 1401.29 1271.49ZM909.686 1295.09C908.619 1323.89 906.486 1334.69 900.486 1339.62C891.286 1347.09 874.486 1364.02 868.752 1371.62L862.752 1379.62L849.552 1383.09C842.352 1385.09 836.219 1386.42 835.819 1386.15C835.152 1385.35 839.819 1373.62 845.552 1362.42C853.152 1347.22 863.152 1331.75 885.552 1300.42C897.019 1284.29 906.752 1270.42 907.152 1269.35C907.686 1268.02 908.086 1268.15 909.152 1269.89C909.952 1271.35 910.086 1281.09 909.686 1295.09ZM1148.75 1276.15C1148.75 1277.09 1147.02 1284.95 1144.75 1293.62C1137.55 1322.15 1126.62 1350.69 1111.15 1381.89C1106.75 1390.69 1102.89 1398.15 1102.62 1398.42C1101.95 1399.09 1080.09 1395.75 1078.35 1394.69C1077.15 1393.89 1077.69 1390.55 1080.75 1381.09C1086.35 1363.89 1090.62 1339.35 1088.49 1335.49C1087.69 1333.89 1086.35 1332.15 1085.55 1331.62C1083.02 1329.89 1075.82 1330.42 1074.09 1332.55C1073.15 1333.62 1071.29 1340.69 1069.95 1348.15C1067.69 1360.69 1060.75 1384.95 1058.22 1388.95C1057.42 1390.29 1051.82 1389.49 1032.62 1385.09C1019.15 1382.15 1007.82 1379.49 1007.55 1379.09C1007.29 1378.82 1011.29 1368.55 1016.35 1356.29C1021.55 1344.02 1028.35 1326.82 1031.55 1318.15L1037.42 1302.42L1051.42 1297.89C1070.49 1291.75 1093.82 1285.89 1122.62 1279.75C1151.42 1273.75 1148.75 1274.15 1148.75 1276.15ZM748.752 1277.75C748.752 1279.35 735.419 1303.62 735.019 1302.82C734.619 1302.29 733.952 1298.29 733.419 1294.02C732.886 1289.62 732.219 1285.35 731.819 1284.42C731.419 1283.49 734.086 1281.89 739.019 1280.15C747.152 1277.22 748.752 1276.95 748.752 1277.75ZM505.419 1295.22C508.352 1298.82 517.552 1309.89 525.819 1319.75C536.352 1332.15 540.619 1338.15 540.086 1339.75C533.686 1356.15 526.086 1383.35 521.152 1407.22L519.952 1412.55L512.886 1395.89C508.886 1386.69 501.952 1370.95 497.419 1360.95L489.019 1342.55L490.886 1328.42C493.019 1312.42 496.486 1290.82 497.552 1288.02C497.952 1286.95 498.619 1286.69 499.152 1287.35C499.819 1288.02 502.619 1291.49 505.419 1295.22ZM718.752 1307.35C723.419 1330.29 723.419 1336.42 718.486 1354.55C711.286 1381.22 706.086 1418.55 706.086 1444.95V1456.02L690.752 1470.82C661.819 1498.55 638.352 1531.89 624.086 1565.22C621.419 1571.49 618.752 1577.09 618.086 1577.75C615.019 1580.82 615.552 1576.42 619.952 1560.42C626.752 1535.49 629.152 1520.95 636.086 1464.55C645.552 1385.75 654.219 1324.95 656.619 1319.09C657.286 1317.49 662.619 1313.62 668.352 1310.55C684.219 1301.75 713.286 1289.22 714.486 1290.42C715.152 1291.09 717.019 1298.69 718.752 1307.35ZM781.552 1322.69C782.886 1350.95 780.086 1372.42 772.352 1395.22C766.352 1412.69 763.152 1417.49 753.952 1422.95L745.686 1427.89L746.619 1414.15C749.686 1369.75 759.019 1328.95 773.019 1300.02L778.486 1288.55L779.552 1295.22C780.086 1298.82 781.019 1311.22 781.552 1322.69ZM591.152 1312.15C597.819 1329.35 603.686 1346.95 606.752 1359.62C609.019 1369.22 609.019 1369.75 606.086 1388.02C604.352 1398.15 602.886 1406.42 602.752 1406.15C602.486 1406.02 599.952 1399.62 596.752 1391.89C590.486 1376.02 581.819 1359.49 573.286 1346.69C570.086 1341.89 567.419 1337.22 567.419 1336.29C567.419 1334.82 584.752 1298.55 585.552 1298.55C585.686 1298.55 588.219 1304.69 591.152 1312.15ZM994.219 1329.62C991.952 1335.22 986.752 1347.22 982.619 1356.42L975.019 1373.09L950.886 1372.29C937.686 1371.89 926.486 1371.35 926.219 1371.09C921.552 1367.09 951.286 1343.89 983.286 1326.29C991.019 1322.15 997.552 1318.82 997.686 1319.09C997.952 1319.35 996.352 1324.02 994.219 1329.62ZM323.952 1355.22C336.752 1374.29 345.819 1395.22 353.286 1422.82C357.819 1439.09 367.552 1484.15 366.886 1484.95C365.686 1486.02 354.486 1477.22 346.619 1468.95C321.952 1443.22 306.219 1401.89 300.086 1346.55C296.886 1318.02 296.486 1318.82 307.552 1332.69C312.619 1339.22 320.086 1349.35 323.952 1355.22ZM376.619 1336.82C383.152 1345.49 393.952 1359.49 400.752 1367.89C418.886 1390.69 440.352 1423.49 450.619 1444.29C458.086 1459.35 459.952 1464.42 460.886 1472.29C462.486 1485.62 464.619 1515.09 464.086 1515.75C463.686 1516.15 405.952 1501.49 405.152 1500.82C405.019 1500.69 400.486 1482.55 394.886 1460.55C380.086 1401.75 371.819 1377.49 358.352 1353.89L353.152 1344.55L356.752 1337.89C358.752 1334.29 361.152 1328.95 362.086 1326.15C362.886 1323.49 363.819 1321.22 364.086 1321.22C364.486 1321.22 370.086 1328.29 376.619 1336.82ZM1644.75 1344.02C1644.75 1344.82 1643.55 1350.02 1642.09 1355.75C1628.22 1410.02 1594.09 1470.42 1558.35 1504.02C1526.35 1534.02 1490.49 1550.95 1405.95 1576.55C1373.55 1586.42 1352.22 1593.62 1336.75 1600.29C1332.49 1602.15 1331.55 1602.02 1325.69 1599.35L1319.29 1596.55L1331.69 1587.89C1345.42 1578.29 1368.22 1556.95 1378.09 1544.69L1384.49 1536.55L1406.89 1532.82C1505.69 1516.29 1564.75 1482.15 1591.55 1426.15C1601.55 1405.09 1606.75 1373.89 1601.15 1367.62C1598.35 1364.55 1593.42 1364.55 1590.22 1367.75C1588.75 1369.22 1587.15 1373.89 1586.22 1378.82C1584.09 1390.95 1580.09 1402.82 1573.82 1415.22C1551.55 1459.35 1506.89 1490.69 1443.55 1506.55C1425.42 1511.09 1403.55 1515.09 1402.62 1514.15C1401.82 1513.35 1417.82 1493.89 1432.49 1477.49L1442.35 1466.55H1451.29C1476.62 1466.55 1506.35 1461.09 1523.29 1453.22C1545.15 1443.09 1551.82 1434.82 1544.09 1427.22C1539.55 1422.55 1535.29 1423.09 1528.49 1428.82C1516.62 1438.82 1494.35 1446.42 1470.09 1448.69L1460.09 1449.49L1464.75 1444.55C1470.75 1438.15 1494.75 1417.22 1506.75 1407.75C1532.62 1387.35 1565.55 1366.42 1592.75 1352.82C1606.49 1346.02 1609.29 1345.09 1620.09 1344.02C1637.82 1342.42 1644.75 1342.29 1644.75 1344.02ZM1547.29 1357.75C1547.02 1358.02 1540.75 1362.29 1533.42 1367.22C1505.15 1386.42 1486.09 1401.89 1455.02 1431.09L1435.29 1449.62L1419.69 1448.02C1394.49 1445.22 1356.75 1438.02 1356.75 1435.75C1356.75 1435.22 1358.09 1434.29 1359.82 1433.89C1361.42 1433.35 1379.55 1424.69 1400.22 1414.55C1458.89 1385.62 1484.89 1375.22 1538.75 1359.35C1545.55 1357.35 1548.35 1356.82 1547.29 1357.75ZM570.219 1378.29C579.152 1392.95 587.419 1410.82 593.152 1427.89L597.819 1441.89L594.752 1467.22C593.019 1481.09 590.619 1500.69 589.419 1510.55C588.219 1520.42 586.086 1534.15 584.619 1540.95C581.952 1553.89 576.619 1573.49 575.952 1572.82C575.686 1572.55 571.952 1560.42 567.552 1545.89C558.886 1517.09 548.352 1485.75 538.886 1460.69L532.886 1444.95L534.886 1433.49C538.619 1412.42 544.752 1390.29 553.019 1368.82L557.019 1358.42L560.352 1362.82C562.086 1365.22 566.619 1372.15 570.219 1378.29ZM955.419 1408.82C944.219 1428.69 915.819 1472.15 913.019 1473.62C912.352 1474.02 871.419 1471.22 869.152 1470.69C868.886 1470.55 871.819 1466.82 875.552 1462.15C885.152 1450.29 899.419 1428.55 906.619 1414.69C910.086 1408.02 913.819 1402.42 915.152 1402.15C916.352 1401.75 926.886 1401.49 938.486 1401.35L959.686 1401.22L955.419 1408.82ZM1018.09 1411.35C1029.42 1414.02 1039.55 1416.69 1040.49 1417.22C1041.82 1417.89 1040.62 1420.15 1035.69 1426.02C1023.95 1440.15 1011.55 1449.75 993.152 1459.09C984.086 1463.62 961.419 1471.09 959.286 1470.29C958.752 1470.02 961.952 1463.89 966.352 1456.55C970.886 1449.22 978.886 1434.69 984.352 1424.29C990.086 1413.35 994.886 1405.62 995.819 1405.89C996.752 1406.15 1006.75 1408.55 1018.09 1411.35ZM868.086 1416.82C859.819 1429.49 846.086 1446.55 835.019 1458.15L824.619 1468.95L811.686 1469.75C780.752 1471.75 750.219 1476.02 739.952 1479.89C738.086 1480.69 736.219 1481.22 735.686 1481.22C734.086 1481.22 743.152 1472.55 753.419 1464.55C775.819 1447.09 800.752 1432.82 826.752 1422.55C841.019 1417.09 871.686 1407.75 872.619 1408.69C872.886 1408.95 870.886 1412.69 868.086 1416.82ZM1258.62 1420.55L1269.29 1425.35L1260.62 1433.22C1255.82 1437.49 1248.49 1445.22 1244.22 1450.42L1236.49 1459.89L1215.55 1466.55C1187.15 1475.49 1154.09 1485.09 1154.09 1484.29C1154.09 1483.89 1157.69 1477.89 1162.09 1470.95C1166.49 1464.02 1173.29 1451.89 1177.29 1444.02L1184.49 1429.89L1198.09 1427.49C1205.55 1426.29 1218.35 1422.95 1226.49 1420.02C1234.75 1417.22 1242.89 1415.09 1244.75 1415.22C1246.62 1415.49 1252.89 1417.89 1258.62 1420.55ZM1075.82 1423.89L1086.09 1425.62L1083.69 1429.49C1079.02 1437.49 1062.35 1458.69 1050.89 1471.35C1038.09 1485.35 1032.09 1496.02 1030.22 1507.75C1029.69 1511.49 1028.89 1514.82 1028.62 1515.09C1027.42 1516.29 914.219 1538.55 909.686 1538.55C909.152 1538.55 913.019 1532.95 918.486 1526.15C923.819 1519.49 931.419 1509.35 935.419 1503.89C939.419 1498.42 943.152 1493.49 943.819 1493.09C944.486 1492.55 948.352 1491.89 952.486 1491.49C974.352 1489.09 1001.95 1478.55 1021.29 1465.22C1032.35 1457.49 1051.02 1438.82 1058.09 1428.29C1060.62 1424.42 1063.42 1421.49 1064.22 1421.75C1064.89 1422.02 1070.22 1423.09 1075.82 1423.89ZM493.819 1441.89C507.552 1474.55 532.752 1539.89 532.752 1543.09C532.752 1543.49 525.019 1540.02 515.419 1535.49L498.086 1527.22L496.219 1518.55C493.019 1504.15 488.886 1476.29 487.419 1458.55C485.686 1437.49 485.152 1423.75 486.219 1424.95C486.619 1425.49 490.086 1433.09 493.819 1441.89ZM1140.49 1431.35C1145.02 1431.75 1148.75 1432.42 1148.75 1432.82C1148.75 1433.35 1145.42 1439.89 1141.42 1447.49C1133.55 1462.42 1122.49 1479.75 1114.22 1490.29C1109.02 1496.82 1109.02 1496.82 1093.55 1500.55C1085.02 1502.55 1077.69 1503.89 1077.29 1503.49C1076.35 1502.55 1090.35 1474.69 1104.35 1449.75L1115.55 1429.49L1123.82 1430.02C1128.35 1430.42 1135.82 1430.95 1140.49 1431.35ZM1296.62 1435.75C1298.49 1436.95 1294.62 1439.22 1285.95 1441.89C1282.89 1442.82 1282.89 1442.69 1286.62 1438.69C1290.62 1434.42 1293.29 1433.62 1296.62 1435.75ZM1353.69 1453.09C1365.29 1455.89 1383.42 1459.62 1394.09 1461.22C1404.75 1462.82 1415.15 1464.42 1417.15 1464.95C1420.75 1465.89 1420.22 1466.55 1394.49 1492.82L1368.09 1519.75L1346.75 1520.55C1321.29 1521.49 1276.22 1518.95 1252.75 1515.09C1248.22 1514.29 1248.35 1514.15 1259.42 1509.75C1284.09 1499.75 1326.75 1488.69 1351.95 1485.75C1363.55 1484.42 1368.35 1478.15 1362.09 1472.55C1359.82 1470.42 1357.82 1470.29 1347.15 1470.95C1322.62 1472.55 1291.15 1479.35 1262.89 1489.22C1247.82 1494.42 1219.15 1506.69 1215.82 1509.49C1214.89 1510.15 1208.35 1510.15 1198.49 1509.35C1189.82 1508.55 1177.02 1507.89 1170.09 1507.89L1157.42 1507.75L1176.75 1501.75C1223.69 1487.22 1292.75 1462.69 1319.15 1451.35C1324.75 1448.82 1330.09 1447.09 1331.02 1447.22C1331.82 1447.49 1342.09 1450.15 1353.69 1453.09ZM797.152 1493.62C773.152 1513.49 740.486 1534.02 711.952 1547.35C699.552 1553.09 680.086 1561.22 678.752 1561.22C676.886 1561.22 678.886 1556.42 686.619 1542.82C699.152 1520.82 704.752 1513.89 713.819 1509.35C735.019 1498.69 766.219 1491.35 793.152 1490.69L801.019 1490.55L797.152 1493.62ZM889.019 1493.22C894.219 1493.22 898.086 1493.75 897.819 1494.42C897.286 1496.29 870.486 1528.15 860.486 1539.09C852.752 1547.49 851.552 1548.29 844.752 1549.35C821.019 1553.22 753.686 1562.55 753.286 1562.15C753.019 1561.89 757.419 1558.82 763.286 1555.35C788.486 1540.42 823.019 1515.35 838.752 1500.55L848.086 1491.75L863.952 1492.55C872.752 1492.95 883.952 1493.22 889.019 1493.22ZM368.752 1515.62L375.686 1518.02L380.219 1531.75C382.752 1539.35 384.752 1545.75 384.752 1546.15C384.752 1546.55 367.686 1528.82 352.886 1512.95L345.686 1505.22L353.819 1509.22C358.219 1511.49 364.886 1514.29 368.752 1515.62ZM433.419 1531.89C442.219 1534.02 453.686 1537.22 458.752 1538.95L468.086 1542.15L470.486 1551.35C476.886 1575.75 488.752 1609.22 507.152 1654.42C507.686 1655.89 507.019 1656.02 503.952 1655.35C490.619 1652.02 471.019 1641.09 456.219 1628.69C448.752 1622.55 442.752 1610.95 429.552 1577.62C423.152 1561.35 412.752 1530.55 412.752 1527.75C412.752 1526.69 412.219 1526.55 433.419 1531.89ZM1070.89 1536.55C1066.49 1540.55 1062.75 1543.62 1062.35 1543.35C1062.09 1542.95 1062.49 1540.55 1063.42 1538.02C1064.75 1534.02 1065.82 1533.09 1071.15 1531.35C1074.62 1530.42 1077.69 1529.49 1078.09 1529.35C1078.49 1529.35 1075.15 1532.55 1070.89 1536.55ZM1170.09 1536.42C1170.09 1536.69 1164.89 1540.69 1158.49 1545.35C1141.29 1557.62 1124.35 1571.49 1084.75 1605.22C1065.29 1621.75 1045.82 1638.29 1041.55 1641.89L1033.69 1648.55L1002.22 1648.95C984.886 1649.22 971.019 1649.22 971.419 1648.82C971.819 1648.42 979.019 1644.15 987.419 1639.22C1026.22 1616.29 1060.22 1590.69 1089.55 1562.29L1107.02 1545.22L1118.22 1542.69C1133.42 1539.09 1170.09 1534.69 1170.09 1536.42ZM1248.09 1538.82C1263.55 1539.75 1291.82 1540.55 1311.15 1540.55H1346.22L1342.49 1543.62C1324.89 1558.15 1296.49 1578.42 1286.75 1583.62C1284.75 1584.55 1280.89 1584.29 1272.09 1582.29C1254.09 1578.42 1221.15 1577.49 1203.29 1580.55C1172.22 1585.62 1147.15 1595.62 1111.42 1617.09C1079.82 1636.15 1080.89 1635.49 1084.09 1632.29C1088.09 1628.29 1123.42 1597.75 1140.09 1583.89C1159.42 1567.75 1171.42 1558.69 1190.09 1546.29C1205.29 1536.02 1205.42 1536.02 1212.75 1536.55C1216.75 1536.95 1232.75 1537.89 1248.09 1538.82ZM1029.29 1550.15C1027.95 1561.75 1023.95 1570.95 1017.29 1578.42C1007.95 1588.82 968.619 1614.42 924.886 1638.55L909.686 1646.95L897.552 1646.02C880.886 1644.82 837.952 1639.09 819.419 1635.49L804.219 1632.55L815.019 1624.82C830.752 1613.89 851.419 1597.09 864.752 1584.29L876.352 1573.22L906.219 1567.75C935.952 1562.42 995.019 1550.15 1014.09 1545.35C1019.55 1544.02 1025.42 1542.82 1027.15 1542.69C1030.22 1542.55 1030.22 1542.82 1029.29 1550.15ZM515.819 1562.69C522.752 1566.15 541.686 1576.69 543.152 1578.02C543.952 1578.55 548.619 1597.75 550.619 1607.75L552.352 1617.09L548.219 1620.95C540.752 1627.89 533.952 1632.29 532.752 1631.09C530.486 1628.82 506.086 1562.82 506.086 1559.09C506.086 1558.02 507.686 1558.69 515.819 1562.69ZM811.419 1586.55C801.419 1595.22 780.752 1610.55 768.086 1618.82L754.752 1627.62L729.419 1628.42C686.886 1629.62 637.819 1638.42 589.419 1653.62C581.419 1656.15 574.619 1658.15 574.352 1658.02C574.219 1657.75 577.286 1652.82 581.152 1646.95C585.152 1641.09 589.952 1633.35 591.952 1629.62L595.552 1623.09L608.486 1620.02C623.952 1616.29 661.819 1604.15 675.419 1598.55C684.086 1594.95 687.419 1594.42 706.619 1593.22C734.086 1591.49 768.352 1588.42 792.086 1585.35C818.086 1581.89 816.752 1581.89 811.419 1586.55ZM1247.42 1603.22C1247.42 1605.35 1206.89 1619.62 1182.75 1625.89C1165.42 1630.55 1134.49 1637.22 1131.15 1637.22C1128.35 1637.09 1143.02 1628.15 1157.42 1621.22C1173.69 1613.35 1193.42 1607.09 1209.42 1604.69C1220.75 1602.95 1247.42 1601.89 1247.42 1603.22ZM1300.62 1613.75L1305.29 1615.35L1295.95 1620.55C1282.09 1628.29 1260.62 1641.35 1227.82 1662.29L1198.09 1681.22L1182.62 1677.22C1166.35 1673.09 1141.42 1668.69 1125.42 1667.09L1116.09 1666.15L1134.09 1663.09C1188.62 1653.89 1244.62 1636.42 1282.75 1616.82C1293.02 1611.49 1294.09 1611.35 1300.62 1613.75ZM1372.75 1647.22C1380.49 1651.89 1388.62 1657.09 1391.02 1658.95L1395.29 1662.02L1385.69 1667.22C1372.89 1674.15 1356.49 1684.02 1338.89 1695.62C1331.02 1700.95 1322.89 1705.62 1321.15 1706.02C1314.89 1707.62 1280.35 1705.49 1267.42 1702.69C1252.35 1699.49 1236.75 1694.82 1236.89 1693.49C1236.89 1692.95 1248.75 1685.49 1263.15 1676.82C1277.55 1668.29 1294.89 1657.89 1301.42 1653.75C1308.09 1649.62 1319.95 1642.69 1327.95 1638.42L1342.62 1630.82L1350.62 1634.82C1355.15 1637.09 1365.02 1642.69 1372.75 1647.22ZM826.086 1669.09C835.286 1670.55 845.152 1672.29 848.086 1672.95L853.419 1674.15L845.419 1677.75C804.086 1696.69 745.552 1715.75 710.219 1721.89L697.819 1724.02L678.886 1715.49C668.619 1710.82 656.352 1705.49 651.819 1703.89C647.152 1702.29 643.419 1700.42 643.419 1699.89C643.419 1698.55 673.286 1685.09 687.419 1680.15C702.752 1674.82 724.486 1669.49 740.352 1667.22C759.152 1664.55 804.086 1665.49 826.086 1669.09ZM1066.09 1677.89C1073.82 1679.49 1098.35 1685.62 1120.62 1691.35L1161.29 1701.75L1146.62 1708.82C1138.62 1712.69 1124.09 1718.42 1114.35 1721.62L1096.49 1727.49L1071.95 1722.42C1038.49 1715.62 1021.42 1714.02 991.552 1714.95L966.886 1715.75L980.219 1708.29C994.486 1700.42 1030.75 1676.69 1032.22 1674.42C1033.29 1672.55 1048.22 1674.02 1066.09 1677.89ZM994.886 1677.35C987.552 1683.09 957.686 1701.22 943.819 1708.29C912.086 1724.42 899.819 1728.55 860.752 1736.42C825.286 1743.62 805.286 1745.62 780.086 1744.82C768.352 1744.42 757.019 1743.49 754.752 1742.82C751.019 1741.75 751.552 1741.35 764.086 1737.22C795.419 1726.95 850.619 1705.75 883.819 1691.35L901.019 1684.02L922.486 1683.35C937.152 1682.82 951.286 1681.35 966.752 1678.69C979.286 1676.55 991.419 1674.82 993.952 1674.69L998.486 1674.55L994.886 1677.35ZM1229.69 1716.42C1243.42 1718.95 1260.62 1721.75 1267.82 1722.69C1275.15 1723.62 1280.09 1724.82 1279.15 1725.35C1275.55 1727.35 1250.49 1733.09 1236.09 1735.22C1220.89 1737.49 1173.02 1738.42 1162.49 1736.55L1157.15 1735.75L1179.95 1723.89C1192.49 1717.49 1203.15 1712.15 1203.69 1712.02C1204.22 1711.89 1215.95 1713.89 1229.69 1716.42Z" fill="url(#paint0_radial_67_386)"/>
<defs>
<radialGradient id="paint0_radial_67_386" cx="0" cy="0" r="1" gradientUnits="userSpaceOnUse" gradientTransform="translate(932.503 900.82) rotate(90) scale(900.82 932.503)">
<stop stop-color="#C9A876"/>
<stop offset="1" stop-color="#63533A"/>
</radialGradient>
</defs>
</svg>
